<svg xmlns="http://www.w3.org/2000/svg" width="640" height="289"><path fill="#b94c34" d="m224.572 16.873 3.553-.005q4.867-.004 9.736.001 5.254.003 10.51-.004a19208 19208 0 0 1 20.572 0q8.355.003 16.711.001h2.402l4.83-.001q22.643-.004 45.285.006 19.446.006 38.89-.001a80684 80684 0 0 1 49.954-.004h2.39q8.354.002 16.707-.002 10.167-.005 20.336.003 5.192.005 10.384 0 5.616-.002 11.23.006l3.351-.007 3.014.008h2.622C499 17 499 17 500 18c.133 1.812.133 1.812.125 4l.008 2.187C500 26 500 26 499 27c-2.981.108-5.94.15-8.921.151l-2.871.013q-4.801.019-9.603.025l-6.852.026q-7.396.027-14.794.045-11.682.032-23.365.077a62787 62787 0 0 1-51.706.17l-14.746.045-2.098.007q-17.288.054-34.575.119-11.626.042-23.254.071-7.218.021-14.435.05-3.362.012-6.723.018-4.567.01-9.136.032h-2.724c-3.913-.364-3.913-.364-7.197 1.151 6.11 6.289 12.523 6.676 20.79 6.799 2.898.011 5.795-.007 8.693-.026q3.135.012 6.27.032c5.656.029 11.312.02 16.969.005 5.917-.01 11.835.015 17.753.036 11.198.035 22.396.039 33.594.031 12.752-.006 25.504.021 38.257.052 26.224.061 52.45.08 78.674.071l1 3c-4.3 3.195-8.054 3.431-13.232 3.399l-2.5.02c-2.763.019-5.524.016-8.287.013l-5.943.031c-5.377.028-10.755.037-16.133.043-5.62.01-11.24.036-16.86.06-10.642.044-21.285.072-31.927.095-12.116.027-24.232.071-36.348.117-24.923.093-49.847.164-74.77.222 1 2.117 1 2.117 3 4 2.6.405 4.782.547 7.384.519l2.297.023c2.548.02 5.094.012 7.642.004q2.734.014 5.47.031c4.956.028 9.912.031 14.868.03 5.177.004 10.354.03 15.531.052 9.807.041 19.613.061 29.42.074 11.163.016 22.326.055 33.49.095 22.965.083 45.932.137 68.898.172-.375 2.437-.375 2.437-1 5-2.968 1.484-5.646 1.142-8.96 1.158l-2.196.015q-3.66.022-7.32.032l-5.231.03q-7.12.04-14.237.068-7.433.035-14.867.076-14.082.074-28.166.138-16.03.076-32.06.16-32.98.17-65.963.323l2 3c3 .457 3 .457 6.605.379l2.08.013c2.31.012 4.621.002 6.932-.007q2.478.006 4.957.016 5.344.017 10.69.01c5.629-.007 11.258.009 16.888.028 11.95.038 23.899.05 35.848.061 12.899.011 25.797.026 38.696.07q8.4.028 16.802.016c3.48-.002 6.958.009 10.437.023q2.427.006 4.854-.004a636 636 0 0 1 6.606.016l3.74.003L460 59l2 3-2 3c-2.823.37-2.823.37-6.505.36l-2.047.009c-2.274.004-4.547-.012-6.822-.028h-4.877c-4.424.002-8.847-.016-13.27-.037-4.62-.019-9.238-.02-13.858-.024-8.75-.01-17.502-.034-26.253-.064-9.961-.033-19.922-.05-29.884-.065A35588 35588 0 0 1 295 65l2 5 158 1 1 5c-1 1-1 1-3.575 1.123l-3.506-.003-1.945.003c-2.167.002-4.333-.004-6.5-.01l-4.64.001q-6.32-.001-12.638-.013c-4.398-.006-8.795-.006-13.193-.008q-12.5-.005-25-.021-14.228-.016-28.454-.022Q327.274 77.034 298 77l1 6 3.277-.214c15.255-.918 30.5-.934 45.776-.92q5.55.002 11.097-.002 9.278-.003 18.555.006 10.728.006 21.456-.002 9.255-.007 18.508-.003 5.51.003 11.02-.001c4.072-.004 8.143.001 12.214.007l3.69-.007 3.334.009 2.913.001C453 82 453 82 454 83v6H299v5l2.402-.003q28.891-.033 57.784-.049 13.97-.007 27.943-.023 12.172-.015 24.346-.02 6.45 0 12.9-.01 6.062-.01 12.126-.008 2.232 0 4.464-.006 3.035-.006 6.068-.001l3.439-.003C453 94 453 94 454 95c.04 1.666.043 3.334 0 5-2.748 1.374-4.935 1.123-8.011 1.12l-3.884.004-4.285-.01h-4.494q-6.111-.001-12.222-.013-6.383-.007-12.764-.008-12.092-.005-24.182-.021-13.762-.015-27.526-.022-28.316-.016-56.632-.05l-2 5 2.45-.003q29.454-.033 58.909-.049 14.244-.007 28.488-.023 12.41-.015 24.82-.02 6.576 0 13.152-.01 6.18-.01 12.363-.008 2.276 0 4.55-.006 3.094-.006 6.187-.001l3.506-.003C455 106 455 106 456 107c.125 2.5.125 2.5 0 5-1 1-1 1-3.59 1.123l-3.529-.003-1.957.003c-2.18.002-4.361-.004-6.541-.01l-4.67.001q-6.36-.001-12.72-.013-6.637-.007-13.276-.008-12.58-.005-25.16-.021-14.317-.015-28.635-.022-29.46-.016-58.922-.05l-1 4 2.522-.006q30.345-.066 60.69-.098 14.673-.014 29.348-.047 12.788-.03 25.574-.037 6.774-.003 13.547-.023 6.372-.02 12.743-.015 2.341 0 4.684-.012c2.127-.01 4.254-.008 6.381-.003l3.612-.005C458 117 458 117 461 119v5l-169 1-2 4 2.756-.006q33.161-.066 66.322-.098 16.036-.014 32.073-.047 13.974-.03 27.948-.037 7.403-.003 14.804-.023 6.962-.02 13.925-.015 2.56 0 5.119-.012c2.324-.01 4.648-.008 6.973-.003l3.947-.005C467 129 467 129 470 131c.187 2.625.187 2.625 0 5l-2.88.007q-34.665.088-69.328.229-16.763.07-33.525.11-14.607.034-29.214.103-7.737.037-15.475.049-7.277.01-14.554.056-2.676.015-5.352.011c-2.43-.002-4.858.015-7.288.036l-2.155-.014c-2.983.043-4.79.072-7.19 1.938L282 140l3.107.004q37.406.055 74.812.18c12.06.04 24.12.072 36.18.087q15.765.019 31.53.084c5.566.022 11.131.038 16.697.037q7.858 0 15.715.05 2.885.013 5.769.004c2.625-.007 5.25.011 7.876.035l2.305-.023c5.314.085 8.05 1.202 12.009 4.542v2c-4.48 1.125-8.852 1.118-13.437 1.073l-2.568-.012q-4.257-.024-8.514-.059l-6.106-.033q-6.574-.036-13.15-.077c-6.933-.042-13.867-.07-20.801-.095l-3.547-.013-7.18-.025c-16.142-.057-32.284-.122-48.426-.232q-16.335-.113-32.669-.145a2316 2316 0 0 1-17.283-.092 1527 1527 0 0 0-16.261-.063 473 473 0 0 1-5.958-.048c-12.135-.516-12.135-.516-22.852 4.37-1.92 1.822-1.92 1.822-3.248 3.451l3.636.013a212105 212105 0 0 1 97.968.368q16.94.065 33.88.124 17.368.06 34.737.132 9.761.04 19.523.072 9.176.03 18.351.071 3.38.015 6.757.023 4.592.014 9.182.039l2.739.003c6.113.04 6.113.04 7.227 1.155.133 1.812.133 1.812.125 4l.008 2.187C500 165 500 165 499 166a77 77 0 0 1-4.655.311l-3.001.125-3.286.117-3.411.128c-12.193.423-24.38.467-36.58.464l-7.45.01q-8.96.011-17.92.012-7.29 0-14.578.006a60321 60321 0 0 1-43.756.012h-2.248q-18.084.002-36.167.023-18.656.023-37.313.02-10.44-.001-20.88.014-9.8.014-19.603.003-3.583-.003-7.166.007c-27.484.065-51.346-3.045-71.986-23.252-14.977-17.028-21.08-37.234-20.175-59.603C149.975 68.633 156.455 53.742 167 42l2.207-2.488c14.851-15.811 34.071-22.682 55.365-22.639m-50.76 33.752c-11.854 15.623-16.144 33.169-13.519 52.537 3.097 17.107 12.825 31.557 26.707 41.775 14.936 9.668 32.446 13.753 50.031 10.372 16.729-4.064 31.732-13.794 41.094-28.434 9.273-15.254 12.77-32.76 8.625-50.313A164 164 0 0 0 285 71l-.809-2.57C281.706 61.38 277.585 55.84 273 50l-1.36-1.934C261.95 35.116 244.256 29.223 229 27c-20.808-2.061-41.781 7.997-55.188 23.625"/><path fill="#cd452a" d="m224.572 16.873 3.553-.005q4.867-.004 9.736.001 5.254.003 10.51-.004a19208 19208 0 0 1 20.572 0q8.355.003 16.711.001h2.402l4.83-.001q22.643-.004 45.285.006 19.446.006 38.89-.001a80684 80684 0 0 1 49.954-.004h2.39q8.354.002 16.707-.002 10.167-.005 20.336.003 5.192.005 10.384 0 5.616-.002 11.23.006l3.351-.007 3.014.008h2.622C499 17 499 17 500 18c.133 1.812.133 1.812.125 4l.008 2.187C500 26 500 26 499 27c-2.981.108-5.94.15-8.921.151l-2.871.013q-4.801.019-9.603.025l-6.852.026q-7.396.027-14.794.045-11.682.032-23.365.077a62787 62787 0 0 1-51.706.17l-14.746.045-2.098.007q-17.288.054-34.575.119-11.626.042-23.254.071-7.218.021-14.435.05-3.362.012-6.723.018-4.567.01-9.136.032h-2.724c-3.913-.364-3.913-.364-7.197 1.151l12 8-2 2 2 2.812C280 45 280 45 280 48l1.875.937C286 51 286 51 286.746 52.742q.69 2.125 1.375 4.25c.756 2.084.756 2.084 2.438 3.477 1.91 2.028 1.896 3.412 2.066 6.156-.016 2.986-.016 2.986 1.375 5.375.286 2.743.448 5.486.621 8.238.22 2.72.22 2.72 1.399 4.77 3.37 6.85.949 17.906-1.02 24.992l-2 3h-2v8l-5 1 1-9h2c1.215-6.537 1.26-12.93 1.312-19.563l.088-3.634c.114-16.183-5.485-31.43-16.86-43.06C272 45 272 45 272 43h-3v-2l-2.438-.75C264 39 264 39 263.187 36.875L263 35l3-1v2h4l-10-7v2h2l-1 3c-4.659-1.812-4.659-1.812-6.813-3-2.538-1.16-5.101-1.803-7.816-2.426a87 87 0 0 1-4.96-1.367c-15.029-4.39-31.456-3.685-45.286 3.73-4.097 2.26-8.126 4.633-12.125 7.063l-1.809 1.07c-4.602 2.98-7.136 6.445-9.93 11.137L171 52h-2l-.816 2.266c-1.133 2.615-2.341 4.291-4.122 6.484-7.882 11.622-7.35 30.461-5.437 43.812 4.014 18.64 14.528 34.113 30.375 44.75 15.508 8.942 33.88 11.325 51.375 7.625 9.868-2.943 22.242-8.255 28.75-16.437l1.492-1.816L272 137c2.25-2.438 2.25-2.438 4-4h2l1-3 3 1c-.543 3.913-1.666 5.888-4 9-.714 2.65-.714 2.65-1 5l-2.637.719c-3.736 1.423-6.127 3.212-9.176 5.781l-2.894 2.406c-2.337 1.882-2.337 1.882-3.293 4.094l3.683.013a217595 217595 0 0 1 97.092.36l2.138.008q17.158.065 34.316.124 17.593.06 35.185.132 9.887.04 19.774.072 9.294.03 18.588.071 3.422.015 6.844.023 4.65.014 9.3.039l2.774.003c6.192.04 6.192.04 7.306 1.155.04 2 .043 4 0 6-15.874.867-31.696 1.15-47.592 1.145l-7.449.01q-8.976.011-17.952.012-7.302 0-14.603.006-20.782.013-41.565.012h-4.503q-18.112.002-36.225.023-18.678.023-37.354.02-10.455-.001-20.91.014-9.82.014-19.64.003-3.59-.003-7.18.007c-27.5.065-51.374-3.032-72.027-23.252-14.977-17.028-21.08-37.234-20.175-59.603C149.975 68.633 156.455 53.742 167 42l2.207-2.488c14.851-15.811 34.071-22.682 55.365-22.639"/><path fill="#552b17" d="m189.063 67.688 3.785.011C196 68 196 68 198 70c1.55 4.64 1.263 9.536 1.313 14.375l.087 2.828.026 2.758.044 2.494C199 95 199 95 195 101h49v-2l-2.323-.028c-3.476-.054-6.951-.138-10.427-.222l-3.656-.043-3.516-.098-3.237-.063c-3.475-.668-4.665-1.813-6.841-4.546-1.91-5.847-1.682-14.157 0-20 2.029-2.74 3.645-4.696 7.072-5.464 2.55-.181 5.055-.203 7.612-.165l2.827-.007q2.955 0 5.908.04c3.005.033 6.007.02 9.013 0q2.875.01 5.752.03l2.708-.015c5.64.105 8.78.888 13.108 4.581 2.235 4.47 1.351 10.472 1.405 15.438q.033 2.237.103 4.472c.435 13.953.435 13.953-3.098 18.485-3.67 3.728-8.919 4.495-13.958 4.866l-3.793.014-2.111.015c-2.28.014-4.56.013-6.841.01l-4.784.014q-4.997.01-9.993.002c-4.267-.006-8.534.01-12.801.034-3.289.015-6.577.016-9.865.013q-2.36 0-4.72.015c-2.198.013-4.394.006-6.592-.006l-3.785.002c-3.408-.402-4.789-.943-7.167-3.374-1.302-3.907-1.182-7.644-1.203-11.719l-.017-2.588q-.014-2.71-.02-5.417c-.01-2.766-.041-5.53-.072-8.296q-.01-2.63-.016-5.261l-.038-2.51c.023-5.761.023-5.761 1.683-7.928 2.735-2.081 5.388-1.639 8.745-1.594M184 74a168 168 0 0 0-.168 7.43l-.01 2.26q-.007 2.374-.007 4.747c-.002 2.42-.02 4.841-.04 7.262q-.005 2.302-.005 4.606l-.022 2.197c.017 3.722.132 5.317 2.252 8.498 2.34.438 2.34.438 5.092.34h3.215l3.482-.047 3.556-.013c3.76-.017 7.52-.054 11.28-.093q3.817-.022 7.633-.04 9.371-.052 18.742-.147v-4l-48-1c-1.555-3.11-1.727-6.63-1-10l2-1.152c2.17-1.63 2.17-1.63 2.345-3.845.085-2.553.052-5.075-.032-7.628l-.03-2.68c.285-4.177.285-4.177-1.283-7.695-1.873-.16-1.873-.16-4-.125l-2.187-.008c-1.834-.064-1.834-.064-2.813 1.133m44 7a88 88 0 0 0-1 5c.973 1.193.973 1.193 2.766 1.114l2.27-.016 2.45-.01 2.577-.025 2.587-.014q3.175-.02 6.35-.049a88 88 0 0 0 1-5c-.973-1.193-.973-1.193-2.766-1.114l-2.27.016-2.45.01-2.577.025-2.587.014q-3.175.02-6.35.049"/><path fill="#060505" d="m185 185 3 1v22h30l-1-2h-24l-1-4c1.638-2.692 2.294-3.584 5-5 4.2-.719 8.312-.652 12.563-.562l3.443-.034c8.336.074 8.336.074 11.302 2.428 2.1 2.69 2.387 4.81 2.692 8.168h5l.113-2.117.2-2.758.175-2.742C233 197 233 197 236 195h-6c-.625-3.375-.625-3.375-1-7 2.691-2.691 4.19-2.299 7.938-2.312l3.214-.051C243 186 243 186 244.88 187.52L246 189l2.313-2.062L251 185l3 1 1 21h2l.043-3.797.144-4.953c.01-1.238.01-1.238.018-2.5.222-6.125.222-6.125 3.158-9.328C263 185 263 185 266 185v31l-43 1 1 4-1 3-7 1-2-3 1-5h-37l1 1c.188 2.438.188 2.438 0 5-2 2-2 2-4.75 2.23l-3.25-.042-3.25-.02C165 225 165 225 163 224c-.043-2-.04-4 0-6l1-1-26-1c-1-4-1-4 1-9l15 1-1-2a96 96 0 0 0-7.562-.625l-2.155-.117c-1.76-.095-3.522-.177-5.283-.258-1.125-5.75-1.125-5.75 0-8 2.896-.081 5.79-.14 8.688-.187l2.474-.077c4.773-.058 7.99.1 11.838 3.264 1.543 2.94 2 4.668 2 8l3-1 .043-2.082c.144-2.72.362-5.258.957-7.918 2.87-2.568 4.168-3 8-3l1 13h3l.043-3.797.144-4.953.018-2.5c.155-4.26.232-6.121 3.158-9.39.87-.45 1.74-.898 2.637-1.36m59 9-3 1v12l4 1c1.313-1.086 1.313-1.086 1.098-3.723l-.036-3.34-.027-3.347L246 195z"/><path fill="#b2533d" d="m245 35 2.34.879c14.831 6.06 26.566 17.353 32.945 32.09 5.735 15.292 6.345 34.063-.365 49.192-8.338 16.664-22.197 27.613-39.572 33.78-15.355 3.754-32.462 1.163-46.348-5.941-3.876-2.434-7.46-5.101-11-8l-1.96-1.578C171.564 126.934 165.66 113.43 164 101c-.162-3.126-.185-6.245-.187-9.375l-.038-2.46c-.036-15.32 6.826-30.064 17.475-40.915C197.364 32.49 223.74 26.619 245 35m-61 20c-10.384 12.582-15.275 26.727-14 43 2.255 15.84 10.278 28.376 22.77 38.172 12.5 8.37 26.536 11.751 41.46 9.297 14.072-3.282 26.562-11.256 34.723-23.367 7.826-13.054 11.504-26.414 8.293-41.688A115 115 0 0 0 274 71l-.875-2.234c-6.245-13.94-18.494-23.429-32.434-28.891C220.568 33.333 198.307 39.799 184 55"/><path fill="#ce442b" d="m224.572 16.873 3.553-.005q4.867-.004 9.736.001 5.254.003 10.51-.004a19208 19208 0 0 1 20.572 0q8.355.003 16.711.001h2.402l4.83-.001q22.643-.004 45.285.006 19.446.006 38.89-.001a80684 80684 0 0 1 49.954-.004h2.39q8.354.002 16.707-.002 10.167-.005 20.336.003 5.192.005 10.384 0 5.616-.002 11.23.006l3.351-.007 3.014.008h2.622C499 17 499 17 500 18c.133 1.812.133 1.812.125 4l.008 2.187C500 26 500 26 499 27c-2.981.108-5.94.15-8.921.151l-2.871.013q-4.801.019-9.603.025l-6.852.026q-7.396.027-14.794.045-11.682.032-23.365.077a62787 62787 0 0 1-51.706.17l-14.746.045-2.098.007q-17.288.054-34.575.119-11.626.042-23.254.071-7.218.021-14.435.05-3.362.012-6.723.018-4.567.01-9.136.032h-2.724c-3.913-.364-3.913-.364-7.197 1.151l12 8-2 2 2 2.812C280 45 280 45 280 48l1.875.937C286 51 286 51 286.746 52.742q.69 2.125 1.375 4.25c.756 2.084.756 2.084 2.438 3.477 1.91 2.028 1.896 3.412 2.066 6.156-.016 2.986-.016 2.986 1.375 5.375.286 2.743.448 5.486.621 8.238.22 2.72.22 2.72 1.399 4.77 3.37 6.85.949 17.906-1.02 24.992l-2 3h-2v8l-5 1 1-9h2c1.215-6.537 1.26-12.93 1.312-19.563l.088-3.634c.114-16.183-5.485-31.43-16.86-43.06C272 45 272 45 272 43h-3v-2l-2.438-.75C264 39 264 39 263.187 36.875L263 35l3-1v2h4l-11-8 2-4h234v-3H208l-1-3c5.847-1.264 11.623-1.14 17.572-1.127"/><path fill="#060606" d="M364 185c5 1 5 1 6.794 2.175 1.778 2.69 1.544 4.825 1.499 8.024l-.03 3.662-.075 3.827-.042 3.86A1353 1353 0 0 1 372 216l-13 1 1 1c.188 2.438.188 2.438 0 5-2 2-2 2-4.5 2.25C353 225 353 225 351 223c-.187-2.562-.187-2.562 0-5l1-1h-27l1 5-2 3c-2.969.398-2.969.398-6.5.375l-3.531.023L311 225l-2-3 1-5-21-1-1 5c-1.625 2.313-1.625 2.313-4 4-4.402.463-6.28.48-10-2l1-4h5v-2l-3.937-.437c-3.938-.438-3.938-.438-5.063-1.563-.352-5.287-.528-8.766 3-13 4.46-3.63 8.45-4.965 14-6 1.663 1.663 1.36 3.783 1.563 6.063l.253 2.785L290 207l6 1-.07-2.082-.055-2.73-.07-2.708C296 198 296 198 298 195l-2-2c-.25-2.5-.25-2.5 0-5l2-2c3.625.375 3.625.375 7 1 .683 2.125 1.127 3.534.531 5.719-.709 3.044-.625 5.909-.594 9.031l.028 3.547L305 208l7-1 .043-2.082c.39-7.382.39-7.382 3.27-10.106C318 194 318 194 322 195v13h6l-1-3.062c0-3.938 0-3.938 1.574-5.997 2.09-1.92 3.93-3.58 6.426-4.941 3.966.285 6.205 2.482 8.871 5.234C345 201 345 201 344.875 204.875L344 208h7l-.176-2.3c-.134-2.966-.176-5.751.176-8.7 2.25-2.25 2.25-2.25 5-3l4 1v13h4zm-29 17-1 4 4-1-1-3zm-55 4-1 3h3v-3z"/><path fill="#df3d1d" d="m209 19 1 1a70 70 0 0 0 4.537.12l2.99.004 3.324-.01h3.5q4.83-.001 9.661-.013 5.202-.008 10.403-.008 9.02-.005 18.04-.018 13.044-.017 26.09-.023 21.165-.011 42.331-.031l2.562-.003 41.113-.041q21.082-.02 42.165-.03 13.017-.007 26.034-.026 8.914-.012 17.829-.015 5.15 0 10.299-.012 5.573-.01 11.144-.008l3.318-.01 2.997.004 2.601-.003C493 20 493 20 495 21v3l-234 1c-1.158 2.947-1.158 2.947-1 6h2l-1 3c-4.659-1.812-4.659-1.812-6.812-3-2.54-1.16-5.102-1.803-7.817-2.426a87 87 0 0 1-4.96-1.367c-15.029-4.39-31.456-3.685-45.286 3.73-4.097 2.26-8.126 4.633-12.125 7.063l-1.809 1.07c-4.602 2.98-7.136 6.445-9.93 11.137L171 52h-2l-.816 2.266c-1.133 2.615-2.341 4.291-4.121 6.484-7.883 11.622-7.35 30.461-5.438 43.813 2.107 9.835 6.129 19.559 12.176 27.605 1.273 1.945 1.771 3.56 2.199 5.832-4 0-4 0-6.812-2.625-7.19-8.933-11.377-19.006-11.188-30.375h-2c-2.556-10.798-1.031-22.244 1-33h2l-.375-2.75c.04-9.972 8.111-19.18 14.375-26.25l1.938-2.328c4.8-5.38 8.898-7.085 16.062-7.672v-3c4.523-4.668 10.66-6.796 17.063-7.187L207 23v-3l-9 2c3.342-3.342 6.475-3.197 11-3"/><path fill="#e63b1a" d="m279 130 3 1c-.543 3.913-1.666 5.888-4 9-.714 2.65-.714 2.65-1 5l-2.637.719c-3.736 1.423-6.127 3.212-9.175 5.781l-2.895 2.406c-2.337 1.882-2.337 1.882-3.293 4.094l3.615.007a69860 69860 0 0 1 95.341.255l2.1.007c11.23.036 22.461.06 33.691.081q17.278.033 34.555.099 9.708.037 19.415.049 9.13.01 18.259.056 3.357.014 6.715.011c3.047-.002 6.094.015 9.14.036l2.71-.014 2.467.028 2.132.006c2.393.488 3.308 1.547 4.86 3.379-1.598 1.598-3.27 1.13-5.485 1.134l-2.955.014h-3.285l-3.46.01q-4.776.014-9.552.017-5.144.007-10.288.022c-8.293.02-16.586.03-24.88.039l-11.721.015a51763 51763 0 0 1-49.109.044l-2.542.002c-13.563.008-27.126.033-40.689.066q-20.898.049-41.796.054c-7.82.002-15.638.01-23.457.036q-9.999.034-19.998.02-5.094-.007-10.189.017c-26.162.126-26.162.126-38.594-4.49v-2l-2.875-.75C190 155 190 155 188.625 152.875L188 151c4.42.451 7.926 1.368 11.969 3.168C213.788 159.828 232 160.44 246 155c12.803-5.499 12.803-5.499 23.125-14.5L272 137c2.25-2.437 2.25-2.437 4-4h2z"/><path fill="#aa5739" d="m321.867 128.855 4.748-.01q6.405-.013 12.81-.012 4.005-.001 8.008-.006 13.972-.013 27.943-.012 13.023-.001 26.046-.026 11.195-.019 22.388-.018 6.681.002 13.362-.013 6.27-.014 12.541-.003 2.303.003 4.607-.007c2.091-.008 4.183-.003 6.274.005l3.55-.002C467 129 467 129 470 131c.187 2.625.187 2.625 0 5q-35.152.106-70.304.155-16.32.022-32.64.071-14.221.046-28.442.056-7.534.004-15.067.035-7.084.03-14.169.022-2.606.001-5.212.019c-2.364.014-4.728.011-7.092.003l-2.105.026c-1.912-.018-1.912-.018-4.969-.387l-2-3c10.945-4.662 22.144-4.15 33.867-4.145"/><path fill="#050505" d="m481 185.75 2.625-.016C486 186 486 186 489 188c.188 2.938.188 2.938 0 6v14l3-1-1-1c-.583-6.997-.583-6.997 1.563-10.687L495 193l1.402-1.414c4.739-4.148 9.097-4.025 15.22-3.762L514 188v4c-2.187 1.703-2.187 1.703-5 3.25l-2.812 1.578L504 198l3.254-.105q2.154-.043 4.308-.083l2.135-.076c5.184-.071 8.721.785 13.303 3.264 1.979 2.968 2.342 4.098 2.688 7.5l.261 2.344C530 213 530 213 529 216h-57c0-12 0-12 2.125-15.687 3.114-2.505 4.925-3.13 8.875-3.313v-2l-3.875.625c-2.18.352-2.18.352-4.125.375-2-2-2-2-2.312-5l.312-3c3.24-2.16 4.249-2.272 8-2.25m0 19.25-3 3 4 1z"/><path fill="#060606" d="M435 186c.778 3.406 1.1 6.508 1 10l4 1v11l9-1 .688-4.187c1.05-4.626 2.455-6.878 6.312-9.813 6.836-4.254 6.836-4.254 10.123-3.538L468 190c.029 4.146.047 8.292.063 12.438l.025 3.587.01 3.409.016 3.158C468 215 468 215 467 216c-1.998.158-4 .251-6.004.316l-3.682.127-3.877.12-3.888.13q-4.775.16-9.549.307l-1.312 2.875C437 223 437 223 434 225c-3.523.375-5.349.411-8.375-1.5L424 222l1-3 2.438-.375L430 218l1-2h-9c-.461-8.796-.461-8.796 1.125-12.937 2.329-2.562 4.707-3.725 7.875-5.063l-9-1v-5h3l.375-2.437L426 187c2.957-1.478 5.742-1.06 9-1m24 13-1 3h3v-3zm-27 6-3 4h4z"/><path fill="#604a3e" d="m189.063 67.688 3.785.011C196 68 196 68 198 70c1.55 4.64 1.263 9.536 1.313 14.375l.087 2.828.026 2.758.044 2.494C199 95 199 95 195 101l48 1c-1 3-1 3-4 5-2.17.26-2.17.26-4.715.275l-2.892.029-3.116-.003-3.2.013q-3.351.008-6.701.002a1259 1259 0 0 0-10.284.045q-3.252.004-6.502.002l-3.122.028-2.882-.019-2.543.002L191 107c-1.96-2.94-2.312-3.681-2.375-7l-.086-2.062L189 96l2.008-1.145c2.168-1.639 2.168-1.639 2.32-3.868.066-2.568.02-5.108-.078-7.674l-.055-2.706A413 413 0 0 0 193 74h-8q-.037 7.208-.055 14.417-.008 2.452-.02 4.906a2153 2153 0 0 0-.023 7.044l-.015 2.223c-.07 3.831-.07 3.831 1.113 7.41l1.999.025c6.845.085 13.69.185 20.535.292q3.835.059 7.671.105c3.669.045 7.337.103 11.006.164l3.482.035 3.215.06 2.84.04C239 111 239 111 241 113v3q-11.044.106-22.088.155c-3.42.016-6.838.037-10.257.071-3.932.04-7.864.054-11.796.067l-3.715.047h-3.457l-3.042.02c-3.088-.42-4.43-1.197-6.645-3.36-1.302-3.907-1.182-7.644-1.203-11.719l-.017-2.588q-.014-2.71-.02-5.417c-.01-2.766-.041-5.53-.072-8.296q-.01-2.63-.016-5.261l-.038-2.51c.023-5.761.023-5.761 1.683-7.928 2.735-2.081 5.388-1.639 8.745-1.594"/><path fill="#ab5840" d="M455.222 116.873C458 117 458 117 461 119c.188 2.625.188 2.625 0 5q-30.864.07-61.727.104-14.331.014-28.662.047-12.495.03-24.988.037-6.613.003-13.225.023-6.231.02-12.462.015-2.28 0-4.56.012c-7.71.038-14.902-.147-22.376-2.238 2.517-2.632 3.878-3.94 7.634-4.139l3.413-.02 3.908-.029 4.314-.017 4.523-.03q6.155-.04 12.31-.068c4.292-.022 8.584-.05 12.876-.076q12.208-.074 24.416-.138 13.857-.076 27.716-.16a73374 73374 0 0 1 51.335-.292l3.417-.018q3.18-.014 6.36-.14"/><path fill="#af5135" d="m309.485 105.753 3.897-.013 4.236.017q2.246-.001 4.49-.006c4.054-.005 8.107.003 12.16.013 4.242.01 8.483.007 12.724.007q10.673.002 21.347.023 12.355.023 24.71.02 11.88 0 23.758.013 5.06.006 10.12.006 5.949.002 11.897.017 2.189.004 4.376.004 2.976.001 5.95.012l3.37.005C455 106 455 106 456 107c.125 2.5.125 2.5 0 5-1.753 1.753-4.208 1.126-6.589 1.127l-3.679.009-4.073-.007-4.262.006q-5.809.004-11.618 0c-4.055-.003-8.11 0-12.164 0q-10.232.003-20.464-.005-11.8-.006-23.6.002-10.14.007-20.278.003-6.051-.003-12.102.001-5.705.004-11.41-.005a1636 1636 0 0 0-4.166.002c-7.925.011-15.717-.241-23.595-1.133l-1-4c4.317-1.638 7.877-2.25 12.485-2.247"/><path fill="#a9533c" d="m305.283 70.88 3.99-.004 4.388.01h4.612q6.266.001 12.532.013c4.364.006 8.729.006 13.093.008q12.399.005 24.798.021 14.115.015 28.23.022 29.036.016 58.074.05a88 88 0 0 1 1 5c-1.814 1.814-4.627 1.126-7.067 1.127l-3.999.009-4.428-.007-4.63.006q-6.308.005-12.614 0c-4.392-.003-8.783 0-13.174 0q-11.066.004-22.131-.005a19975 19975 0 0 0-25.615.002q-10.978.007-21.956.003-6.565-.003-13.13.001-6.17.004-12.343-.005l-4.54.002q-3.09.002-6.179-.006l-3.499-.001C298 77 298 77 296 76v-4c3.323-1.108 5.782-1.123 9.283-1.12"/><path fill="#060606" d="M565 184c1 1 1 1 1.063 3.563L566 190h3l2 4 3-1c1.622 1.622 1.13 3.42 1.133 5.656l.004 2.848-.012 2.996.012 2.996-.004 2.848-.004 2.63C575 215 575 215 574 216a194 194 0 0 1-7.395.105l-4.584.045a486 486 0 0 1-7.248.025 369 369 0 0 0-6.98.055l-2.182-.037c-2.323-.007-2.323-.007-5.611.807-2.433 2.822-2.433 2.822-4 6-2 2-2 2-5.937 2.313-2.825-.057-3.755-.082-6.063-1.813l-1-1.5 1-3 2.438-.375L529 218c1.13-2.259 1.124-3.522 1.14-6.027l.06-2.4q.05-2.505.054-5.009c.07-2.287.193-4.343.746-6.564 2.297-2.129 2.297-2.129 5-3l4 1 1 11 11 1 1-5q2.654-.757 5.313-1.5l2.988-.844C564 200 564 200 567 200v-2c-.675.095-1.35.19-2.047.29l-2.703.335-2.672.352c-2.846.025-4.232-.397-6.578-1.977-1-2.312-1-2.312-1-5 1.875-2.625 1.875-2.625 4-5l1-3c2.882-1.441 4.918-.656 8 0"/><path fill="#d04c2f" d="m224.572 16.873 3.553-.005q4.867-.004 9.736.001 5.254.003 10.51-.004a19208 19208 0 0 1 20.572 0q8.355.003 16.711.001h2.402l4.83-.001q22.643-.004 45.285.006 19.446.006 38.89-.001a80684 80684 0 0 1 49.954-.004h2.39q8.354.002 16.707-.002 10.167-.005 20.336.003 5.192.005 10.384 0 5.616-.002 11.23.006l3.351-.007 3.014.008h2.622C499 17 499 17 500 18q.061 3.5 0 7l-4-1v-4l-288 1-1-3c5.847-1.264 11.623-1.14 17.572-1.127"/><path fill="#be5841" d="m286.295 35.76 2.594-.006c2.88-.003 5.758.008 8.637.019h6.179c5.6-.002 11.201.01 16.802.024 5.85.013 11.7.014 17.55.016q16.62.011 33.244.043c12.614.022 25.228.033 37.842.043q38.93.032 77.857.101l-1.937.312L483 37l-1 3q-39.82.07-79.64.104-18.487.014-36.975.047-16.11.03-32.22.037-8.535.003-17.068.023-8.025.02-16.052.015-2.95 0-5.903.012c-2.679.01-5.358.008-8.037.003l-2.378.017c-3.787-.02-5.496-.104-8.727-2.258 3.816-2.544 6.875-2.273 11.295-2.24"/><path fill="#b5523e" d="M278 141h203l2 4c-3.712 1.237-7.128 1.116-10.992 1.082l-2.495-.01q-4.152-.02-8.305-.05l-5.942-.03q-8.079-.04-16.158-.093-8.437-.049-16.876-.092-15.985-.085-31.97-.18-18.195-.107-36.391-.203Q316.436 145.22 279 145z"/><path fill="#161414" d="M516 252.75c3 .25 3 .25 5 2.25.414 2.383.414 2.383.625 5.125l.227 2.758L522 265l4 1c.38-1.282.38-1.282.77-2.59l1.043-3.348 1.019-3.34L530 254l3-1c3.5 2.333 3.633 3.208 4.688 7.125.25.91.502 1.82.761 2.758L539 265h3l1-11c4.33-.866 6.006-1.187 10 0 2 2 2 2 2.195 3.945L555 264l5 1v-11l3-1c2 2 2 2 2.195 4.602l-.07 3.023-.055 3.04L565 266l9-1a88 88 0 0 1 1 5c-1 1-1 1-3.225 1.114l-2.904-.016-3.135-.01-3.298-.026-3.311-.013q-4.064-.018-8.127-.049l-2-4-2 4h-12l-1-4h-2l-1 4c-2.938.108-5.873.187-8.812.25l-2.526.102c-6.088.097-6.088.097-8.748-1.985-1.181-3.059-1.066-5.237-.726-8.492l.292-3.195c.75-3.862 1.595-4.603 5.52-4.93"/><path fill="#53311f" d="m228.684 68.371 2.827-.007q2.955 0 5.908.04c3.005.033 6.007.02 9.013 0q2.875.01 5.752.03l2.708-.015c5.63.105 8.802.867 13.108 4.581.875 2.25.875 2.25 1 4-1.937-.312-1.937-.312-4-1l-1-3q-8.38-.185-16.76-.275-2.85-.037-5.698-.102c-2.735-.061-5.47-.09-8.206-.111l-2.558-.078c-4.25-.002-6.972.274-10.361 2.972-2.644 2.247-2.644 2.247-2.417 4.594h2v-2l4-1v3l4 2v4h18l2-5h1c.313 3.313.313 3.313 0 7-4.306 3.82-8.89 3.354-14.312 3.188l-2.534-.042A565 565 0 0 1 226 91l-1 3 1.804.06c2.69.095 5.38.205 8.071.315.937.03 1.874.062 2.84.094l2.715.117 2.507.095C245 95 245 95 247 97c-.293 3.163-.752 6.132-1.625 9.188-.589 2.186-.589 2.186.625 5.812l9 1v1h-5v2h-9c-1.63-4.122-2.263-6.707-1-11h2l2-6-2.323-.028c-3.476-.054-6.951-.138-10.427-.222l-3.656-.043-3.516-.098-3.237-.063c-3.475-.668-4.665-1.813-6.841-4.546-1.91-5.847-1.682-14.157 0-20 4.258-5.75 8.035-5.727 14.684-5.629"/><path fill="#ae5b44" d="M298 59q31.632-.106 63.263-.155c9.79-.016 19.581-.037 29.372-.071q12.796-.046 25.593-.056 6.78-.004 13.559-.035 6.375-.03 12.75-.022 2.344-.001 4.69-.019c2.128-.014 4.255-.011 6.382-.003l3.615-.008L460 59l2 3c-2 2-2 2-4.807 2.23l-3.66-.027-2.034-.008c-2.26-.01-4.52-.035-6.78-.06l-4.849-.028q-6.594-.043-13.19-.106c-4.59-.04-9.181-.07-13.772-.1-8.699-.06-17.397-.13-26.095-.202-9.9-.083-19.801-.155-29.702-.225Q326.556 63.255 296 63v-2h2z"/><path fill="#050505" d="m177.715 239.77 3.222.042 3.215.02C187 240 187 240 190 241c2.118 4.236 1.274 9.784 1.313 14.438l.087 3.51.026 3.36.044 3.088C191 268 191 268 189.176 269.837c-3.054 1.632-5.491 1.454-8.926 1.35l-3.547-.082L174 271c-2.231-4.463-1.185-10.6-1.187-15.5l-.038-3.824-.005-3.645-.013-3.357c.34-3.745 1.216-4.587 4.958-4.904M181 247v4h3v-4zm0 12-1 3 1 2 3-1v-4z"/><path fill="#040404" d="m387.375 239.813 3.523-.043C394 240 394 240 397 242c.388 2.566.388 2.566.398 5.777l.012 3.494-.035 3.667.035 3.654-.012 3.498-.01 3.214C397 268 397 268 395.668 269.85c-2.662 1.837-5.119 1.471-8.293 1.401l-3.54-.047C381 271 381 271 380 270c-.1-2.134-.13-4.27-.133-6.406l-.004-3.942.007-2.063q.005-3.12-.007-6.241l.004-3.942.004-3.646c.24-5.113 2.993-3.923 7.504-3.947M387 247v4h3v-4zm0 12v5l3-1v-4z"/><path fill="#040303" d="m307.438 239.688 3.496-.051c3.066.363 3.066.363 4.73 1.532 2.866 3.928 1.802 9.659 1.774 14.331l.06 3.496-.002 3.348.006 3.068C317 268 317 268 315.157 269.835c-2.915 1.574-5.117 1.46-8.407 1.353l-3.266-.083L301 271c-2.009-3.346-2.257-5.915-2.266-9.79l-.007-3.35.023-3.485-.023-3.508.007-3.344.007-3.065c.565-5.366 4.173-4.755 8.697-4.77M306 247v4h4v-4zm0 12 1 5 3-1v-4z"/><path fill="#532b14" d="M235 50c5.556 5.073 5.084 6.754 6 15h-32c-1.11-5.552-.869-6.41 2-11 6.864-7.948 14.711-9.16 24-4"/><path fill="#e13b19" d="M264 34h2v2l2.047.445c7.33 1.844 7.33 1.844 10.578 5.555C280 45 280 45 280 48l1.875.938C286 51 286 51 286.746 52.742q.69 2.125 1.375 4.25c.756 2.084.756 2.084 2.438 3.477 1.91 2.028 1.896 3.412 2.066 6.156-.016 2.986-.016 2.986 1.375 5.375.286 2.743.448 5.486.621 8.238.22 2.72.22 2.72 1.399 4.77 3.37 6.85.949 17.906-1.02 24.992l-2 3h-2v8l-5 1 1-9h2c1.215-6.537 1.26-12.93 1.313-19.562l.087-3.635c.114-16.183-5.485-31.43-16.86-43.06C272 45 272 45 272 43h-3v-2l-2.437-.75C264 39 264 39 263.125 36.938L263 35z"/><path fill="#070606" d="m433.934 239.734 3.503.016 3.497-.016C444 240 444 240 447 242c.34 2.706.34 2.706.293 6.102l-.03 3.671-.075 3.852-.042 3.875q-.053 4.75-.146 9.5c-3.585 1.948-6.082 2.243-10.187 2.188l-3.231-.02C431 271 431 271 430 270c-.414-4.634-.517-9.289-.687-13.937l-.182-3.983-.143-3.795-.14-3.504c.217-3.98 1.156-4.69 5.086-5.047M437 247v17h3v-17z"/><path fill="#050505" d="m475.375 239.813 3.523-.043C482 240 482 240 485 242c1.61 9.219 1.538 18.774 0 28-1 1-1 1-3.5 1.125C479 271 479 271 478 270a92 92 0 0 1-.062-5.062l.027-2.786L478 260h-3l.035 2.152.027 2.786.036 2.777C475 270 475 270 474 271c-2.5.125-2.5.125-5 0-1.857-1.857-1.13-4.925-1.133-7.406l-.004-3.942.007-2.063q.005-3.12-.007-6.241l.004-3.942.004-3.646c.24-5.113 2.993-3.923 7.504-3.947M475 247v6l3 1c1.356-1.125 1.356-1.125 1.063-4.062L479 247z"/><path fill="#b95843" d="m309.226 105.76 3.722-.009 4.044.022h4.288c3.87-.002 7.739.01 11.608.024 4.048.013 8.096.014 12.144.016q11.49.011 22.98.043c8.724.022 17.447.033 26.17.043q26.91.032 53.818.101v3l-133 1v1h-17l-1-3c4.23-1.596 7.713-2.248 12.226-2.24"/><path fill="#030303" d="m155.375 239.813 3.523-.043C162 240 162 240 165 242c.388 2.674.388 2.674.398 6.031l.012 3.645-.035 3.824.035 3.824-.012 3.645-.01 3.357L165 269c-3.608 2.405-5.348 2.24-9.625 2.188l-3.54-.02C149 271 149 271 148 270c-.1-2.134-.13-4.27-.133-6.406l-.004-3.942.007-2.063q.005-3.12-.007-6.241l.004-3.942.004-3.646c.24-5.113 2.993-3.923 7.504-3.947M155 247v17h3l1-16z"/><path fill="#050404" d="m282.5 239.75 2.906-.016C288 240 288 240 291 242c.388 2.674.388 2.674.398 6.031l.012 3.645-.035 3.824.035 3.824-.012 3.645-.01 3.357L291 269c-3.352 2.235-4.578 2.271-8.5 2.25l-2.906.016C277 271 277 271 274 269c-1.312-6.125-1.009-12.213-.75-18.437l.08-2.442c.123-2.305.123-2.305.67-6.121 3.352-2.235 4.578-2.271 8.5-2.25M281 247v17h3v-17z"/><path fill="#090909" d="m202.5 239.75 2.906-.016C208 240 208 240 211 242c.356 2.781.356 2.781.328 6.285l-.016 3.795-.062 3.982-.016 3.995c-.08 9.79-.08 9.79-1.234 10.943-2.5.125-2.5.125-5 0-1-1-1-1-1.098-2.848L204 262h-3l.125 3.375C201 269 201 269 199 271c-2.625-.375-2.625-.375-5-1q-.111-5.926-.165-11.853c-.022-2.006-.06-4.012-.099-6.018l-.029-3.809-.048-3.523L194 242c3.352-2.235 4.578-2.271 8.5-2.25M201 247v8h3v-8z"/><path fill="#090908" d="m222.5 239.75 2.906-.016C228 240 228 240 231 242c.34 2.797.34 2.797.293 6.32l-.03 3.809c-.024 1.319-.05 2.637-.076 3.996q-.022 2.01-.04 4.02-.054 4.928-.147 9.855c-4.75 1.125-4.75 1.125-7 0v-8h-3l.125 3.375C221 269 221 269 219 271c-2.625-.375-2.625-.375-5-1q-.111-5.926-.165-11.853c-.022-2.006-.06-4.012-.099-6.018l-.029-3.809-.048-3.523L214 242c3.352-2.235 4.578-2.271 8.5-2.25M221 247v8h3v-8z"/><path fill="#0a0a0a" d="m136.5 239.75 2.906-.016C142 240 142 240 145 242c.34 2.797.34 2.797.293 6.32l-.03 3.809c-.024 1.319-.05 2.637-.076 3.996q-.022 2.01-.04 4.02-.054 4.928-.147 9.855c-4.75 1.125-4.75 1.125-7 0v-8h-3l.063 3.375C135 269 135 269 134 271c-1.666.043-3.334.04-5 0-2.768-2.768-1.235-11.206-1.25-14.937l-.062-3.983-.016-3.795-.028-3.504L128 242c3.352-2.235 4.578-2.271 8.5-2.25M135 247v8h3v-8z"/><path fill="#050404" d="m96.5 239.75 2.906-.016C102 240 102 240 105 242c.388 2.566.388 2.566.398 5.777l.012 3.494-.035 3.667.035 3.654-.012 3.498-.01 3.214C105 268 105 268 103.638 269.847c-2.387 1.68-4.254 1.516-7.138 1.466l-2.906-.012C91 271 91 271 88 269c-.388-2.674-.388-2.674-.398-6.031l-.012-3.645.035-3.824-.035-3.824.012-3.645.01-3.357L88 242c3.352-2.235 4.578-2.271 8.5-2.25M95 247v17h3v-17z"/><path fill="#060606" d="m348.5 239.75 2.906-.016C354 240 354 240 357 242c.388 2.566.388 2.566.398 5.777l.012 3.494-.035 3.667.035 3.654-.012 3.498-.01 3.214C357 268 357 268 355.624 269.85c-2.266 1.606-3.876 1.483-6.624 1.401-.866-.015-1.733-.03-2.625-.047C344 271 344 271 341 270c-2.179-4.357-1.23-10.214-1.25-15l-.062-3.68-.016-3.507-.028-3.231L340 242c3.352-2.235 4.578-2.271 8.5-2.25M347 247v17h3v-17z"/><path fill="#c05642" d="M301 94h149l1 5h-2v-2H301z"/><path fill="#030303" d="m417.438 239.813 3.496-.043C424 240 424 240 427 242c.356 2.781.356 2.781.328 6.285l-.015 3.795-.063 3.982-.016 3.995c-.08 9.79-.08 9.79-1.234 10.943-2.5.125-2.5.125-5 0-1-1-1-1-1.114-3.225l.016-2.904.01-3.135.026-3.298.013-3.311q.018-4.064.049-8.127h-3l.016 1.988q.029 4.443.046 8.887l.026 3.129.01 2.988.016 2.761C417 269 417 269 416 271h-5c-2.666-5.984-2.223-11.965-2.125-18.375l.027-3.387q.036-4.119.098-8.238c2.834-1.417 5.28-1.17 8.438-1.187"/><path fill="#0b0a0a" d="M234 240c2-.043 4-.04 6 0 1 1 1 1 1.098 4.16l-.036 3.903-.027 3.91L241 255h3l-.035-3.027-.028-3.91-.035-3.903C244 241 244 241 245 240c2.5-.125 2.5-.125 5 0 2.718 2.718 1.285 10.717 1.313 14.375l.087 3.813.026 3.648.044 3.36c-.47 2.804-.47 2.804-2.308 4.67-2.918 1.53-5.14 1.428-8.412 1.322l-3.266-.083L235 271c-1.062-1.812-1.062-1.812-2-4l1-3c3.694-1.231 6.206-.644 10 0v-2l-3.875.125c-2.18.07-2.18.07-4.125-.125-2-2-2-2-2.227-4.063.01-.827.02-1.655.032-2.507l.02-2.715.05-2.84.027-2.863q.036-3.507.098-7.012"/><path fill="#060505" d="M363.5 239.875C366 240 366 240 367 241c.072 1.686.084 3.375.063 5.063l-.028 2.785L367 251h3l-.035-2.152-.027-2.786-.036-2.777C370 241 370 241 371 240c2.5-.125 2.5-.125 5 0 1.857 1.857 1.13 4.925 1.133 7.406l.004 3.942-.007 2.063q-.005 3.12.007 6.241l-.004 3.942-.004 3.646C377 270 377 270 376 271c-2.5.125-2.5.125-5 0-1-1-1-1-1.098-3.504l.036-3.058.027-3.067L370 259h-3l.035 2.371c.01 1.012.018 2.024.027 3.067l.036 3.058C367 270 367 270 366 271c-2.5.125-2.5.125-5 0-1.857-1.857-1.13-4.925-1.133-7.406l-.004-3.942.007-2.063q.005-3.12-.007-6.241l.004-3.942.004-3.646c.174-3.712.174-3.712 3.629-3.885"/><path fill="#050505" d="M491.5 239.875C494 240 494 240 495 241c.073 2.353.084 4.708.063 7.063l-.028 3.91L495 255h4l-.035-3.027c-.01-1.29-.018-2.581-.027-3.91l-.036-3.903C499 241 499 241 500 240a100 100 0 0 1 5 0c1.168 5.227 1.184 10.228 1.188 15.563l.037 2.865.005 2.763.013 2.507c-.269 2.546-.882 4.143-2.243 6.302-2.866 1.433-5.372 1.132-8.562 1.125l-3.567.008C489 271 489 271 488 270c-.04-2-.043-4 0-6l10-1-4.437-.875c-2.497-.492-2.497-.492-4.563-1.125-1.14-2.279-1.129-3.568-1.133-6.098l-.004-2.427.012-2.537-.012-2.55c.012-7.332.012-7.332 3.637-7.513"/><path fill="#040404" d="m261.375 239.813 3.523-.043C268 240 268 240 271 242c.356 2.781.356 2.781.328 6.285l-.015 3.795-.063 3.982-.016 3.995c-.08 9.79-.08 9.79-1.234 10.943-2.5.125-2.5.125-5 0-1-1-1-1-1.114-3.225l.016-2.904.01-3.135.026-3.298.013-3.311q.018-4.064.049-8.127h-3v23l-6 1c-1.857-1.857-1.13-4.925-1.133-7.406l-.004-3.942.007-2.063q.005-3.12-.007-6.241l.004-3.942.004-3.646c.24-5.113 2.993-3.923 7.504-3.947"/><path fill="#060606" d="M111.5 239.875C114 240 114 240 115 241a91 91 0 0 1 .098 5.129l-.01 3.135-.025 3.298-.014 3.311q-.018 4.064-.049 8.127h3l-.016-2.095q-.029-4.671-.046-9.342l-.026-3.3-.01-3.134-.016-2.904C118 241 118 241 119 240c2.5-.125 2.5-.125 5 0 1 1 1 1 1.114 3.776l-.016 3.665-.01 3.955-.025 4.167-.014 4.177q-.018 5.13-.049 10.26c-3.259.678-6.292 1.159-9.625 1.188l-2.29.042C111 271 111 271 108 269c-.356-2.781-.356-2.781-.328-6.285l.016-3.795.062-3.983.016-3.994c.09-10.886.09-10.886 3.734-11.068"/><path fill="#070707" d="m328.5 239.75 2.906-.016C334 240 334 240 337 242c.34 2.706.34 2.706.293 6.102l-.03 3.671-.075 3.852-.042 3.875q-.053 4.75-.146 9.5c-3.22 1.715-5.39 2.272-9.062 2.25l-2.598.016C323 271 323 271 320 269c-.388-2.674-.388-2.674-.398-6.031l-.012-3.645.035-3.824-.035-3.824.012-3.645.01-3.357L320 242c3.352-2.235 4.578-2.271 8.5-2.25M327 247v17l4-1v-16z"/><path fill="#a7412a" d="M481 141c2.938 1.313 2.938 1.313 6 3l1 3c-4.486 1.126-8.868 1.122-13.46 1.082l-2.574-.01q-4.267-.019-8.536-.05l-6.12-.03q-8.309-.04-16.616-.093-8.683-.049-17.365-.092-16.442-.085-32.883-.18-18.719-.107-37.436-.203-38.505-.203-77.01-.424l1-3c1.567.01 1.567.01 3.165.018q38.067.222 76.135.425 18.409.098 36.818.205 16.04.095 32.08.177 8.497.043 16.996.096 7.99.049 15.98.086 2.94.014 5.88.035 4 .026 7.999.04l2.376.02c3.913.09 3.913.09 7.571-1.102z"/><path fill="#a54a31" d="m450 82 4 1v6q-25.764.035-51.528.052-11.963.007-23.925.023-10.424.015-20.846.02-5.523 0-11.044.01c-4.104.009-8.208.009-12.313.009l-3.718.01-3.374-.004-2.944.003C322 89 322 89 320 88v-2h131z"/><path fill="#040404" d="M386 197c2.896-.081 5.79-.14 8.688-.187l2.474-.077c4.726-.057 8.124-.01 11.838 3.264 2 5 2 5 2 16h-25c0-7 0-7 1-8a185 185 0 0 1 7.563-.062l2.154.013q2.64.02 5.283.049l-1-2-3.027.035-3.91.028-3.903.035C387 206 387 206 386 205c-.141-2.67-.042-5.324 0-8"/><path fill="#5d493c" d="m213.119 118.861 2.162.006 2.208-.003q2.316 0 4.63.006 3.556.005 7.111-.007 2.245 0 4.489.004l2.162-.006c5.004.024 5.004.024 6.119 1.139.062 5.921-.94 10.523-5 15-4.789 3.55-9.62 4.719-15.54 4.445-4.946-.895-8.623-3.26-11.843-7.09-2.647-4.1-3.095-7.573-2.617-12.355 1.705-1.705 3.845-1.128 6.119-1.139M212 124c1.92 4.8 3.458 7.623 8 10 4.076.993 7.426.912 11.098-1.215 3.56-2.873 4.753-4.19 5.902-8.785z"/><path fill="#d54222" d="M292 64h2l1.375 2.875c1.427 3.128 1.427 3.128 3.625 5.125h-3v4h2l.375 3.438L299 83l2 1h-2v3h2v2h-2v5h2c0 2 0 2-1.5 3.625L298 99l3 1-2 2c-.643 2.069-.643 2.069-1 4h5l-1 2h-5l.625 1.688c.482 2.972-.36 4.632-1.625 7.312l2 2-4 2 8 2v1l-2.117.078-2.758.172-2.742.14c-2.554.366-2.554.366-3.703 2.657L290 129l6 1a56.5 56.5 0 0 1-7 4l1 2-2.812.813c-3.052 1.136-4.038 1.935-6.188 4.187h-3l-1 2c.52-3.85 1.313-5.313 4-8v-4l-2-2 2.375-3.812 1.336-2.145A240 240 0 0 1 286 118v4l4-1 1-8h2c2.38-9.323 4.051-18.332 3-28l-2-2c-.379-2.566-.379-2.566-.562-5.562.064-3.532.064-3.532-1.438-6.438q-.062-3.5 0-7"/><path fill="#040404" d="m458.625 239.813 2.977.019C464 240 464 240 465 241c.04 2 .043 4 0 6h-8v5h8c.043 2 .04 4 0 6-1 1-1 1-4.562 1.063L457 259v5l3.438-.062C464 264 464 264 465 265c.125 2.5.125 2.5 0 5-1.73 1.73-4.025 1.172-6.375 1.188l-2.96.042C453 271 453 271 450 269c-.388-2.674-.388-2.674-.398-6.031l-.012-3.645.035-3.824-.035-3.824.012-3.645.01-3.357L450 242c3.392-2.262 4.652-2.245 8.625-2.187"/><path fill="#121111" d="m79.188 239.875 3.855.055L86 240v7H76v5h10c.043 2 .04 4 0 6-1 1-1 1-3.066 1.098l-2.496-.036-2.504-.027L76 259l.035 2.371.028 3.067.035 3.058C76 270 76 270 75 271c-2.5.125-2.5.125-5 0-2.768-2.768-1.235-11.206-1.25-14.937l-.062-3.983-.016-3.795-.028-3.504L69 242c3.737-2.491 5.745-2.207 10.188-2.125"/><path fill="#a8503b" d="m456 117 5 2v5q-30.941.035-61.882.052-14.367.007-28.733.023-12.522.015-25.044.02-6.63 0-13.26.01-6.242.011-12.485.008-2.289 0-4.578.006-3.13.006-6.26.001l-3.537.003c-3.156-.12-6.122-.53-9.221-1.123v-1h161z"/><path fill="#9b442f" d="m292 62 168 1v2l-166 1v-2h-2z"/><path fill="#ce4f35" d="M207 20v3l-5.75 1.438-3.234.808a78 78 0 0 1-5.344 1.164L191 27l-1 3h-2v3l-1.836.305c-11.066 2.485-17.643 11.143-23.695 20.25C158.88 59.529 156.592 65.04 156 72h-2l-.184 2.422Q152.956 85.715 152 97l-3 1c-1.013-20.906 3.696-40.072 18-56l2.207-2.488c8.251-8.785 18.467-16.05 30.418-18.637l2.29-.508C204 20 204 20 207 20"/><path fill="#161413" d="M128 192c3.382 5.814 4.903 10.237 4 17-1 1-1 1-4.562 1.063L124 210l-.937 2.938C122 216 122 216 121 217c-3.375.313-3.375.313-7 0-2.32-2.246-2.955-3.569-3.293-6.797l.106-2.953.082-2.984L111 202c1.938-.562 1.938-.562 4-1 1 1 1 1 1.098 3.066l-.035 2.496-.028 2.504L116 211l2-1c.279-2.091.279-2.091.313-4.562.53-6.575 2.335-13.438 9.687-13.438"/><path fill="#bc5542" d="M412.681 81.931q6.327.014 12.653.02 12.333.016 24.666.049l1 2c-3.043 1.014-5.075 1.123-8.258 1.12l-3.302.004-3.622-.01h-3.814q-5.18-.001-10.357-.013c-3.608-.006-7.215-.006-10.822-.008q-10.248-.004-20.495-.021-11.667-.015-23.333-.022Q343 85.034 319 85v-1l3.37-.076q6.338-.145 12.676-.296 2.715-.065 5.43-.125c12.446-.27 12.446-.27 24.876-.896 15.75-1.011 31.555-.719 47.33-.676"/><path fill="#d3452c" d="M276 145c-1 3-1 3-10 10l230 1v1H262l-1-3q2.612-2.267 5.25-4.5c.975-.835 1.95-1.67 2.953-2.531C272 145 272 145 276 145"/><path fill="#b86145" d="M346.95 58.886h3.7q4.955.001 9.91.013c3.468.006 6.937.006 10.405.008q9.822.004 19.644.021 11.195.016 22.39.022 23 .016 46.001.05l-1 3-137-1v-1c8.67-.78 17.248-1.141 25.95-1.114"/><path fill="#040404" d="M419.313 185.25 421 186q.037 6.168.055 12.335.008 2.1.02 4.2.017 3.011.023 6.024l.016 3.665C421 215 421 215 420 216c-3.5.125-3.5.125-7 0-2.667-2.667-1.333-10.229-1.375-13.812l-.113-3.643-.035-3.502-.06-3.218C412 189 412 189 414.283 186.56 417 185 417 185 419.313 185.25"/><path fill="#181514" d="M435 186c.778 3.406 1.1 6.508 1 10l4 1v11l2 1-5 2v-6h-2l1 6c-2.709 1.354-5.01 1.065-8 1v-2l1.875-.187c2.403-.642 2.403-.642 3.375-3.375L434 204h2v-3h-6v2l-3 1c-1.018 1.865-1.018 1.865-1.687 4.063l-.762 2.222L424 212h-2c-.324-4.647.032-7.34 3-11 3.188-1.812 3.188-1.812 6-3l-9-1v-5h3l.375-2.437L426 187c2.957-1.478 5.742-1.06 9-1"/><path fill="#cf4b36" d="M260 155h2v2l225 1v1a199211 199211 0 0 1-96.526.056q-15.086.005-30.173.02-17.505.015-35.011.018-9.27 0-18.542.012-8.724.01-17.448.007-3.204 0-6.407.006-4.373.006-8.743.001l-2.565.01c-4.31-.012-8.34-.27-12.585-1.13z"/><path fill="#ce3b23" d="m498 24 2 2c-1.9 1.9-4.698 1.123-7.227 1.13l-2.739-.01-2.886.003q-4.825.001-9.65-.01l-6.887.001q-9.381-.001-18.762-.013c-6.528-.006-13.055-.006-19.583-.008q-16.444-.004-32.89-.018-16.94-.014-33.883-.02h-2.108l-10.47-.005Q309.458 27.034 266 27v-1l3.605-.013a208484 208484 0 0 0 95.034-.36l2.093-.008q16.794-.065 33.588-.124 17.22-.06 34.44-.132 9.676-.04 19.354-.072 9.098-.03 18.194-.071 3.35-.015 6.7-.023 4.55-.014 9.102-.039l2.715-.003c3.9.36 3.9.36 7.175-1.155"/><path fill="#030303" d="M381 185v31h-7c-2.667-2.667-1.333-10.229-1.375-13.812l-.113-3.643-.035-3.502-.06-3.218C373 189 373 189 375.345 186.622 378 185 378 185 381 185"/><path fill="#040303" d="m481 185.75 2.625-.016C486 186 486 186 489 188c.188 2.938.188 2.938 0 6v3l-1 3h-6l-1 3-3-1-1 1 3 3-1 2h-5v5l-2 1c-.86-9.663-.86-9.663 2.125-13.562 3.12-2.646 4.84-3.25 8.875-3.438v-2l-3.875.625c-2.18.352-2.18.352-4.125.375-2-2-2-2-2.312-5l.312-3c3.24-2.16 4.249-2.272 8-2.25"/><path fill="#b54b33" d="M277 41h5l.625 2.375c1.182 2.934 1.182 2.934 4.5 3.938L290 48l-2 1v3h71v2l-69 1c1.709 3.315 1.709 3.315 5.125 3.688L298 59v2c-3.25.75-3.25.75-7 1-2.375-1.5-2.375-1.5-4-4l-.5-3.625L286 51c-1.851-1.468-1.851-1.468-4-2-2.782-1.391-3.552-3.302-5-6z"/><path fill="#b0513e" d="M476 36h11l-4 1-1 3H278v-1l198-1z"/><path fill="#040404" d="m101 240 4 2c.087 4.27.14 8.541.188 12.813l.076 3.681.029 3.526.048 3.253C105 268 105 268 103.65 269.855c-2.444 1.695-4.409 1.436-7.338 1.332l-3.012-.082L91 271l1-2c2.563-.625 2.563-.625 5-1 1.112-4.438 1.115-8.77 1.063-13.312l-.014-2.245q-.02-2.721-.049-5.443h-5v-2h2v-2l3-1v3z"/><path fill="#ac4732" d="M215 35c3.125-.058 6.25-.094 9.375-.125l2.695-.05 2.578-.02 2.38-.032C234 35 234 35 236 37a158 158 0 0 0 7.875 2c8.701 1.992 8.701 1.992 12.125 4l-1 4c-4.727-1.868-9.393-3.872-14.062-5.879-12.244-4.673-28.064-3.068-39.836 2.168C190.764 48.585 184.25 55.293 178 65l-2-2c.375-2.125.375-2.125 1-4l1 1 1-2h2l-.75-1.687C180 54 180 54 181.563 51.375c2.733-2.663 4.85-3.259 8.437-4.375l1-3c2.066-.73 2.066-.73 4.563-1.187.826-.16 1.652-.318 2.503-.481L200 42v-2q2.904-.755 5.813-1.5l3.269-.844C212 37 212 37 215 37z"/><path fill="#060606" d="M403.5 239.875C406 240 406 240 407 241c.1 2.134.13 4.27.133 6.406l.004 3.942-.007 2.063q-.005 3.12.007 6.241l-.004 3.942-.004 3.646C407 270 407 270 406 271c-2.5.125-2.5.125-5 0-1.857-1.857-1.13-4.925-1.133-7.406l-.004-3.942.007-2.063q.005-3.12-.007-6.241l.004-3.942.004-3.646c.174-3.712.174-3.712 3.629-3.885"/><path fill="#de3b1d" d="m279 130 3 1c-.543 3.913-1.666 5.888-4 9-.714 2.65-.714 2.65-1 5l-2.633.71c-3.779 1.448-6.173 3.295-9.242 5.915l-2.93 2.477L260 156l-1-3c-2.015-.733-2.015-.733-4-1v2c-2.585 1.724-4.038 2.447-6.937 3.188l-2.028.542c-2.282.303-3.855-.042-6.035-.73l2.387-.812c11.447-4.119 22.225-9.16 29.613-19.188 2.25-2.437 2.25-2.437 4-4h2z"/><path fill="#e43a15" d="M216 21h45l-2 1c-.465 1.895-.465 1.895-.625 4.063L258 30c-6.717-.33-12.764-.944-19.086-3.3-2.268-.83-4.532-1.316-6.914-1.7v-2l-2.484.07-3.266.055-3.234.07C220 23 220 23 216 21"/><path fill="#040404" d="M245 245h6c.116 3.77.187 7.54.25 11.313l.102 3.248.039 3.115.063 2.872C251 268 251 268 249.164 269.814c-2.92 1.6-5.109 1.481-8.414 1.373l-3.266-.082L235 271c-1.062-1.812-1.062-1.812-2-4l1-3c3.2-1.067 4.885-.948 8.188-.562l2.73.308L247 264l-1-4-6-1c2.139-2.139 3.133-2.427 6-3 .222-1.456.427-2.915.625-4.375l.352-2.46L247 247z"/><path fill="#040303" d="m132 242 3.438.5c2.273.356 2.273.356 4.562.5h2l-1 4h-6v8l7-2v10c-2.621 0-4.51-.313-7-1l.063 3.375C135 269 135 269 134 271h-5c0-3 0-3 1-6a87 87 0 0 0 0-4.687c-.057-5.616.21-10.944 2-16.313z"/><path fill="#0f0d0d" d="M99.938 195.563c3.062.437 3.062.437 4.937 2.5 1.346 3.515 1.407 6.2 1.125 9.937l-1 2h-8v7l-5-1q-.04-2.437-.062-4.875l-.036-2.742C92 206 92 206 93 204h2l-.125-2.875c.168-4.197.928-4.947 5.063-5.562M100 202l1 2Z"/><path fill="#151313" d="M80 196c3.5.313 3.5.313 7 1 1.25 2.501 1.133 4.274 1.125 7.063l.008 2.722C88 209 88 209 87 210q-3.5.061-7 0v6l-5 1c-.473-7.88-.215-13.23 4-20zm2 6 1 2Z"/><path fill="#4b301c" d="M266 77h3q.223 6.215.33 12.433.044 2.111.123 4.222c.477 13.19.477 13.19-3.258 17.72-3.95 3.802-8.271 4.555-13.632 4.75L250 116l1-4 2.375-.375c2.766-.416 2.766-.416 4.625-2.625l2.063-1c2.106-.846 2.106-.846 2.937-3h2l-.016-2.355q-.029-5.26-.046-10.52l-.026-3.707-.01-3.535-.016-3.27C265 79 265 79 266 77"/><path fill="#b95542" d="m431.488 140.902 4.316.005q5.61.006 11.22.024 5.752.014 11.505.02 11.235.016 22.471.049l2 4-3.594-.219-4.906-.281-2.34-.145c-5.793-.324-11.562-.371-17.364-.346-10.1.024-20.198-.27-30.296-.509l-6.285-.145Q410.607 143.18 403 143v-1c9.512-.89 18.94-1.135 28.488-1.098"/><path fill="#111" d="M337.063 194.16c3.51 1.522 6.016 3.496 7.937 6.84.211 3.458-.266 6.624-1 10l-4-1 1-4h2l-1-2-5 5-3-1-1-3h-2l1 5c-1.937-.562-1.937-.562-4-2-1.25-3.187-1.25-3.187-1-7 2.5-3.224 5.696-7.179 10.063-6.84M335 202l-1 4 4-1-1-3z"/><path fill="#030303" d="M229 245h2v25c-5 1-5 1-7 0v-8l-8-1 3-1v-3h2v-2l4-1 1 2 .375-3.25c.521-3.129 1.026-5.085 2.625-7.75"/><path fill="#533a29" d="M235 50c4.53 4.136 5.597 7.343 5.957 13.242L241 65q-4.032.04-8.062.063l-2.28.025c-4.664.02-9.057-.312-13.658-1.088l1-2h19l1-4-2-1-1.5-2.5c-3.246-3.246-5.488-3.395-9.96-3.652-3.739.224-6.22 1.458-9.54 3.152h-3c1.039-3.347 2.046-4.025 5.188-5.75 6.476-2.44 11.807-1.586 17.812 1.75"/><path fill="#b64c3a" d="M347.586 81.931q5.16.014 10.32.02 10.047.017 20.094.049v1c-16.064 1.111-32.09 1.117-48.188 1.062q-3.916-.008-7.833-.013-9.49-.017-18.979-.049l2 3c3.256.29 3.256.29 6.937.062 6.749-.272 6.749-.272 10.063 1.938h-21v-2h-2v-3c2.942-1.471 5.976-1.384 9.21-1.559l2.359-.128c12.328-.582 24.679-.423 37.017-.382"/><path fill="#4a2e20" d="M231 51c5.785 4.185 5.785 4.185 6.875 8.313L238 62c-4.283 1.056-8.43 1.117-12.812 1.063l-2.1-.014q-2.544-.02-5.088-.049l6 1v1h-15c-1.082-5.411-.922-6.566 2-11 2-.812 2-.812 4-1l3-1 2 2h-4v6l2.152-.254 2.786-.309 2.777-.316L226 59l1 1q3.5.062 7 0c-.557-3.344-1.352-6.033-3-9"/><path fill="#4a3c31" d="M209 121h32c1.11 5.552.869 6.41-2 11-3.026 3.503-5.473 5.868-10 7-3.009.147-5.99.118-9 0l-1-3 2.52-.184 3.292-.254c1.08-.08 2.158-.162 3.27-.246 2.978-.218 2.978-.218 5.918-1.316v-2h2v-3l2-1 1-4-30-1z"/><path fill="#121211" d="M70 243h2v13h3c1.039 3.116 1.134 5.36 1.125 8.625l.008 2.977C76 270 76 270 75 271c-2.5.125-2.5.125-5 0-1.774-1.774-1.13-4.35-1.133-6.75l-.004-3.531.012-3.719-.012-3.719.004-3.531.004-3.266C69 244 69 244 70 243"/><path fill="#0e0c0c" d="M266 185v19h-2l-.148-2.809-.227-3.629c-.07-1.194-.14-2.39-.21-3.62-.138-.971-.274-1.942-.415-2.942l-2-1v20c-2.709 1.354-5.01 1.065-8 1v-3l4-1 .043-3.797.144-4.953.018-2.5c.222-6.125.222-6.125 3.158-9.328C263 185 263 185 266 185"/><path fill="#524239" d="m182 112 50 1v1c-6.23 1.638-11.98 2.278-18.41 2.195l-2.585-.008c-2.69-.011-5.378-.036-8.067-.062q-2.757-.016-5.514-.027-6.713-.035-13.424-.098v-3z"/><path fill="#634838" d="m228.586 68.566 2.832-.015a784 784 0 0 1 5.926.003c3.013.008 6.025-.02 9.039-.052q2.883-.003 5.765.002l2.719-.034c5.654.062 8.813.793 13.133 4.53.875 2.25.875 2.25 1 4-1.937-.312-1.937-.312-4-1l-1-3a117 117 0 0 0-16.297-1.168l-2.291-.01q-2.374-.007-4.75-.007c-2.42-.003-4.84-.02-7.26-.04q-2.317-.005-4.636-.005l-2.182-.022c-3.694.017-6.446.21-9.584 2.252l-2-2c3.858-4.057 8.368-3.45 13.586-3.434"/><path fill="#cb4525" d="M151 97c2.152 3.228 2.2 4.284 2 8h2l.191 2.133c1.412 11.381 6.379 20.49 12.809 29.867l-2 1-1.207-1.645-1.606-2.167-1.582-2.145c-1.482-2.021-1.482-2.021-3.113-3.344-2.323-2.646-3.354-5.814-4.554-9.074l-.798-2.135c-2.297-6.415-3.466-12.7-4.14-19.49z"/><path fill="#010101" d="M198 200h20l2 4-1 2h-26l-1-4 2 1 3-1z"/><path fill="#080808" d="M302 240c1.937-.081 3.875-.14 5.813-.187l3.269-.106c2.918.293 2.918.293 4.793 1.512 1.454 2.302 1.43 3.767 1.313 6.469l-.083 2.449L317 252h-2v7c-1.55-1.176-1.55-1.176-3-3 .145-2.48.145-2.48.813-5.187l.644-2.731L314 246l-2 2c-1.875.266-1.875.266-4 .25l-2.125.016C304 248 304 248 302 246l3-2-3-1z"/><path fill="#100f0f" d="m209.438 196.563 3.47-.061 3.338.002 3.053-.006c3.411.634 4.579 1.81 6.701 4.502.75 2.75.75 2.75 1 5l-2 1-2-1v-4h-2v-2l-3 1a70 70 0 0 1-4.668-.121l-2.705-.147-2.815-.17-2.85-.158q-3.48-.195-6.962-.404l-1 3c-2.062.688-2.062.688-4 1 1.56-9.049 8.908-7.484 16.438-7.437"/><path fill="#070707" d="M195 247h3c.197 2.208.382 4.416.563 6.625l.316 3.727c.113 3.404-.189 6.324-.879 9.648h3l-2 4-5-1a3037 3037 0 0 1-.062-10.937l-.026-3.155-.01-2.998-.016-2.777C194 248 194 248 195 247"/><path fill="#100f0f" d="m257.871 239.867 3.567.008 3.558-.008C268 240 268 240 270 241v3l-12-1-2 4 2 1h-2l1 17h2v4l-5-1c-.029-4.48-.047-8.958-.062-13.437l-.026-3.877-.01-3.682-.016-3.412c.16-3.653.3-3.554 3.985-3.725M257 245l3 1h-3z"/><path fill="#0f0f0f" d="m458.188 239.875 2.73.055L463 240v5l-1-3c-1.975.348-1.975.348-4 1l-1 2h-4v23l-3-2c-.388-2.398-.388-2.398-.398-5.375l-.012-3.234.035-3.391-.035-3.39.012-3.235.01-2.977L450 242c3.314-2.21 4.345-2.225 8.188-2.125"/><path fill="#030303" d="m409 206 2 1v9h-25v-2h3v-2h2l1-2q2.625.466 5.25.938l2.953.527c1.686.322 3.367.68 5.031 1.101 1.787.513 1.787.513 3.766.434l-.562-2.375C408 208 408 208 409 206"/><path fill="#0d0d0d" d="m136.188 239.875 2.73.055L141 240l-1 2c-5.45 1.275-5.45 1.275-8 0v2l3 1-2 1c-2.016 5.462-2.183 11.082-1.973 16.836C131 265 131 265 130 268l2 1-4-1c-.087-4.292-.14-8.583-.187-12.875l-.077-3.707-.029-3.535-.048-3.27L128 242c3.314-2.21 4.345-2.225 8.188-2.125"/><path fill="#131313" d="m151.723 239.902 3.34.036 3.347.027L161 240v2h2l-1 3v-2l-6 1v-2h-5l1 3a86 86 0 0 1-1 4 70 70 0 0 0-.133 4.258l-.004 2.394.012 2.473-.012 2.496c-.119 4.325-.119 4.325 1.137 8.379l-4 1q-.037-6.168-.055-12.335-.008-2.1-.02-4.2a1698 1698 0 0 1-.023-6.024l-.016-3.665c.153-3.742.153-3.742 3.837-3.874"/><path fill="#0c0c0c" d="m417.625 239.938 3.602.027L424 240l1 4-4 1-1-2c-2.025-.652-2.025-.652-4-1l1 5h-2l-1 2h-1l-1 15h-1l-.184-3.21-.253-4.165-.12-2.117c-.186-3.882-.186-3.882-1.443-7.508-.04-2-.043-4 0-6 2.884-1.442 5.417-1.094 8.625-1.062"/><path fill="#151515" d="M386 197c2.896-.081 5.79-.14 8.688-.187l2.474-.077c4.774-.058 7.98.108 11.838 3.264.938 2.063.938 2.063 1 4l-2 2v-2h-2l-1-2c-2.962-1.48-5.835-1.353-9.125-1.562l-3.883-.254L389 200v6l-3-1z"/><path fill="#b05a40" d="M408 71h43l-3 1v2q-3.49.57-7 1l-1-1c-2.373-.16-4.721-.26-7.098-.316l-2.148-.063a2259 2259 0 0 0-6.817-.183l-4.61-.131Q413.663 73.146 408 73z"/><path fill="#d54e33" d="M277 41h5l.625 2.375c1.182 2.934 1.182 2.934 4.5 3.938L290 48l-2 1c1.086 3.163 2.228 6.155 4 9 3.116 1.218 3.116 1.218 6 1v2c-3.25.75-3.25.75-7 1-2.375-1.5-2.375-1.5-4-4l-.5-3.625L286 51c-1.851-1.468-1.851-1.468-4-2-2.782-1.391-3.552-3.302-5-6z"/><path fill="#100f0f" d="m489 197-1 3h-6l-1 3-3-1-1 1 3 3-1 2h-5v5l-2 1c-.859-9.656-.859-9.656 2-13.5 4.57-3.809 9.12-5.294 15-3.5"/><path fill="#b35b43" d="M281 80c2.427 3.64 2.304 6.356 2.25 10.563l-.012 2.158c-.09 5.587-.782 10.872-2.238 16.279l-1-4h-2l1.125 3.125c.95 4.209.578 5.997-1.125 9.875h-2c-.237-5.796.272-10.41 2-16 .428-2.664.717-5.315 1-8h1a75.6 75.6 0 0 0 1-14"/><path fill="#0b0b0a" d="m96.188 239.875 2.73.055L101 240c-1.75 4.875-1.75 4.875-4 6v-3h-2v2h-2v2h2l-1 2c-.225 1.537-.408 3.08-.562 4.625l-.254 2.477L93 258h-1l-1-9-1 8h-1a63 63 0 0 1-1.25-10.75l-.078-2.297L88 242c3.314-2.21 4.345-2.225 8.188-2.125"/><path fill="#191817" d="M124 192h4c2.714 4.774 4.566 8.344 4 14l-6 1-1-8h-4c.613-2.962 1.254-4.38 3-7"/><path fill="#171716" d="m460 191 2 1-1 3-6 1-2 11h8l1 3h-12c-.485-8.974-.485-8.974 1.625-13.437 2.614-2.821 4.776-4.233 8.375-5.563"/><path fill="#131312" d="m280 198 3 1v2h-3v2l-4 2c2.353 2.724 4.625 3.814 8 5v2h-7l-1-4h-2v5l-3 1c-.294-4.998-.202-8.05 3-12 3-2.375 3-2.375 6-4"/><path fill="#0e0e0d" d="m282.188 239.875 2.73.055L287 240v2l-6 1v6h-3l-1-1v19h-2c-.254-4.124-.474-8.249-.687-12.375l-.221-3.562-.166-3.399-.175-3.142L274 242c3.314-2.21 4.345-2.225 8.188-2.125"/><path fill="#151515" d="M575 195v7l-3-1-1-2-3 1-1 5-1.875.188c-2.403.64-2.403.64-3.375 3.375L561 211l-3-1v-8q2.435-1.005 4.875-2l2.742-1.125C568 198 568 198 570 198v-2c2-1 2-1 5-1"/><path fill="#141313" d="M100.125 195.875 103 196l2 4h-2l.625 2.375L104 205l-2 2c-2.729-.033-5.297-.564-8-1 .96-9.918.96-9.918 6.125-10.125M100 202l1 2Z"/><path fill="#a84530" d="M481 141c2.938 1.313 2.938 1.313 6 3l1 3c-4.341 1.1-8.488 1.046-12.926.879l-2.265-.072q-3.561-.116-7.122-.244l-4.845-.159Q454.92 147.211 449 147l-1-2 2.906.016q5.328.026 10.656.039 2.308.008 4.615.02 3.315.018 6.628.023l2.09.015c3.676.05 3.676.05 7.105-1.113z"/><path fill="#110e0e" d="m417 185 4 1v26h-1l-1-6h-1a491 491 0 0 1-.562-4.75l-.317-2.672c-.116-2.476.266-4.208.879-6.578l-1-2-4 1c.313-1.875.313-1.875 1-4z"/><path fill="#a75235" d="M172 65h2c1.304 4.743.524 7.213-1.245 11.682-1.359 4.173-1.598 8.463-1.942 12.818l-.249 2.781A757 757 0 0 0 170 99h-1c-1.39-9.032-.46-17.057 1-26l-3-2 2-5 2 1z"/><path fill="#100f0f" d="m454 258 3 1v5l3.438-.062C464 264 464 264 465 265c.125 2.5.125 2.5 0 5-1 1-1 1-4.375 1.25C457 271 457 271 455.063 269.5L454 268h3l-3-1z"/><path fill="#0d0c0c" d="m383.723 239.902 3.34.036 3.347.027L393 240c2.02 4.462 1.947 7.172 1 12h-1l-1-8-1 1-1-3-1 2h-3l-1 4h-5q-.062-3.5 0-7c1-1 1-1 3.723-1.098"/><path fill="#ca4833" d="M207 20v3l-5.75 1.438-3.234.808a78 78 0 0 1-5.344 1.164L191 27l-1 3h-2v3l-8 2 7-7 1-3c5.857-3.05 12.364-5 19-5"/><path fill="#0c0b0a" d="m132 206-1 4h-7l-.937 2.938C122 216 122 216 121 217c-3.375.313-3.375.313-7 0-2-1.75-2-1.75-3-4 .313-2.25.313-2.25 1-4l1 2h2l1 4 1.645-1.46c.715-.633 1.43-1.264 2.168-1.915l2.144-1.898c3.54-2.992 5.444-3.976 10.043-3.727"/><path fill="#b44f35" d="M256 135v3h-2v2l-4 1c2.715 2.307 2.715 2.307 5.188 1.625L257 142c-3.46 2.95-6.784 5.259-11 7l-3-1 4-2-1-1c-2.357.09-4.712.247-7.062.438l-3.91.308L232 146c3.16-1.708 6.319-2.768 9.75-3.812 5.383-1.749 9.608-3.975 14.25-7.188"/><path fill="#151413" d="M337 197c2.614.353 4.528.66 6.688 2.219 1.833 2.488 1.43 3.958 1 6.969l-.364 2.73L344 211l-4-1 1-4h2l-1-2-5 5-3-1-1-3-2-1h3v2c3.174-.682 3.174-.682 4.313-3.375L339 200z"/><path fill="#0c0b0b" d="M565 184c1 1 1 1 1.063 3.563L566 190h3l1 4h-4l-1-2-3 1-.812-1.875C560.044 188.7 560.044 188.7 557 187v-3c2.882-1.441 4.918-.656 8 0m-6 5 1 4-3-1v-2z"/><path fill="#d64c39" d="M260 25h12v1l-2.437.375L267 27l-1 2 1.863 1.242L278 37l-5 2-1.145-1.238c-2.353-2.235-4.906-4.057-7.543-5.95l-3.011-2.167L259 28z"/><path fill="#5c3e30" d="m225 80 3 2v4h18l2-5h1q.061 3.5 0 7c-1 1-1 1-3.133 1.114l-2.777-.016-2.998-.01-3.155-.025-3.166-.014Q229.886 89.03 226 89v-2h-2c-.043-2-.04-4 0-6z"/><path fill="#0f0e0e" d="M323 240c2.496-.363 2.496-.363 5.438-.312l2.933.011C334 240 334 240 337 242c.408 2.712.133 5.244 0 8h-3v-7l-2 1v2l-3 1v-4l-1 2h-3v-2h-2l-1 3-1-3z"/><path fill="#121010" d="m438 196 2 1v11l2 1-5 2v-6h-2l1 6c-2.709 1.354-5.01 1.065-8 1v-2l1.875-.187c2.403-.642 2.403-.642 3.375-3.375L434 204h2l-.687-2.312L435 199c1.438-1.812 1.438-1.812 3-3"/><path fill="#cc4027" d="M163 64c1.307 3.66.646 6.06-.375 9.75-1.926 7.731-2.33 15.324-2.625 23.25l-2-1c-.286-7.064.152-14.034.813-21.062l.212-2.562.245-2.411.206-2.168C160 66 160 66 163 64"/><path fill="#544033" d="M184 69h10l1 2-2 3c-1.945.293-1.945.293-4.125.188L185 74l-1 6h-1l-1 10h-1V73h2z"/><path fill="#0f0e0e" d="M404 206h1v5c-3.245.913-5.831.98-9.125.5-3.78-.773-3.78-.773-6.875.5v2h-3a100 100 0 0 1 0-5c1-1 1-1 4.816-1.098q2.374.01 4.747.036l2.443.013q2.997.02 5.994.049z"/><path fill="#111" d="m471.723 239.902 3.34.036 3.347.027L481 240v2h2l-1 3v-2c-4.14-.21-4.14-.21-8 1h-2l-1 10h-3q-.04-3.22-.062-6.437l-.036-3.622c.13-3.906.13-3.906 3.82-4.039"/><path fill="#140e0c" d="M447 185c5.568.568 5.568.568 7 2 .375 2.375.375 2.375 0 5-2.25 1.938-2.25 1.938-5 3-2.312-.812-2.312-.812-4-2-.125-2.875-.125-2.875 0-6z"/><path fill="#cb4e33" d="M500 18v7l-4-1v-4l-32-1v-1q6.968-.252 13.934-.482 2.37-.08 4.74-.166 3.408-.122 6.814-.23l2.14-.083c3.11-.094 5.39-.033 8.372.961"/><path fill="#dc3b1b" d="M174 139c3.518.6 5.502 1.932 8.188 4.25l2.105 1.766c1.999 2.323 2.36 3.976 2.707 6.984-5.75-1.625-5.75-1.625-8-5l-2.625-1.375L174 144c-.312-2.687-.312-2.687 0-5"/><path fill="#b1513f" d="M416 129h31v1l-2.773.148-3.602.227-3.586.21c-3.145.117-3.145.117-5.039 2.415a101 101 0 0 1-8.125-.375l-2.285-.172A677 677 0 0 1 416 132z"/><path fill="#090808" d="M254 186c-.375 2.438-.375 2.438-1 5l-2 1v-2h-2v12l-4-2c.19-10.063.19-10.063 3.375-13.75C251 185 251 185 254 186"/><path fill="#c45a43" d="M273 117c0 6.614-4.744 10.968-9.125 15.438C259.292 137 259.292 137 257 137c.56-3.757 2.062-5.334 4.813-7.875 2.482-2.376 4.67-4.586 6.5-7.5C270 119 270 119 273 117"/><path fill="#050404" d="m177 217 2 1c.125 2.375.125 2.375 0 5-2 2-2 2-4.75 2.266l-3.25-.016-3.25.016C165 225 165 225 163 223l3-1v-3l6 3 1-3h4z"/><path fill="#0e0e0e" d="m311 212 9 1v3l5 1 1 3-7-1-1 3c-3.848-2.482-3.848-2.482-4.625-5.125L313 215l-2-1z"/><path fill="#030202" d="M72 244h1l1 10 10 1v-3h2c.043 2 .04 4 0 6-1 1-1 1-3.285 1.098l-2.778-.036-2.785-.027L75 259v-3h-3z"/><path fill="#b94935" d="M500 157v8l-4 1-1-6-14-2v-1q3.624-.292 7.25-.562l2.066-.17c3.426-.25 6.411-.407 9.684.732"/><path fill="#d44628" d="M296 130a56.5 56.5 0 0 1-7 4l1 2-2.812.813c-3.052 1.136-4.038 1.935-6.188 4.187h-3l-1 2c.083-2.808.558-4.524 2.484-6.598 5.527-4.806 9.01-6.69 16.516-6.402"/><path fill="#a74530" d="M483 37h5v2c-4.346 3.574-8.344 3.396-13.687 3.25l-2.416-.033c-5.675-.106-11.265-.49-16.897-1.217v-1l27-1z"/><path fill="#161515" d="M83 196c2 .313 2 .313 4 1 1.607 3.215 1.057 6.436 1 10-2 .043-4 .04-6 0l-1-1c.086-2.031.086-2.031.375-4.5l.273-2.469C82 197 82 197 83 196m-1 6 1 2Z"/><path fill="#0f0e0e" d="m540 196-1 4-5-1v10h-2l-1 2a244 244 0 0 1-.312-6.312l-.176-3.551C531 198 531 198 533.375 196.063c2.825-1.144 3.854-1.192 6.625-.063"/><path fill="#070707" d="m160 265 1 2h2v2c-4.873 1.591-8.808 2.212-14 2l2-3v-3c3.507-1.17 5.443-.85 9 0"/><path fill="#1c1b1a" d="m543 255 3 2-1 4 6-1v2l-4 1 1 4c-1.812 1.563-1.812 1.563-4 3-2.993-.998-3.948-1.752-6-4l4-1z"/><path fill="#0b0b0b" d="M491.5 239.875C494 240 494 240 495 241c.141 2.67.042 5.324 0 8h-7c-.098-6.152-.098-6.152 0-8 1-1 1-1 3.5-1.125"/><path fill="#0d0d0d" d="M265 205h1v11c-11.116.268-11.116.268-16-2v-1l2.336-.184 3.039-.254c.998-.08 1.995-.162 3.023-.246 2.581-.166 2.581-.166 4.602-1.316.59-1.946.59-1.946 1-4z"/><path fill="#0e0d0d" d="m185 185 3 1v13h-1l-1 5h-1l-1-14-4 1c1.37-3.161 1.99-3.993 5-6"/><path fill="#c1371d" d="M196 160q4.198.83 8.383 1.719c6.881 1.436 13.6 2.63 20.64 2.972L227 165l1 2c-11.252-.275-21.233-1.63-32-5z"/><path fill="#cd4c2c" d="M292 64h2l1.375 2.875c1.427 3.128 1.427 3.128 3.625 5.125h-3v4h2l1 7-4-1-.148-1.898-.227-2.477c-.07-.812-.14-1.624-.21-2.46-.244-2.368-.244-2.368-2.415-4.165-.125-3.625-.125-3.625 0-7"/><path fill="#b55e49" d="M169 70c2.473 3.71 2.019 4.786 1.25 9.063l-.547 3.222C169 85 169 85 167 87c-.46 2.203-.46 2.203-.625 4.625l-.227 2.477L166 96h-1c-.263-8.243.394-15.912 2-24h2z"/><path fill="#0e0d0d" d="M455 196h5c-.506 2.169-1 4-2 6l4 1v2l-7 1c-1.37-2.74-1.126-4.97-1-8z"/><path fill="#ba5c42" d="M260 46c5.67 1.35 8.18 3.816 12 8l-1 3-1.812-1.5c-2.158-1.783-2.158-1.783-5.188-1.5-4-4.229-4-4.229-4-8"/><path fill="#111010" d="M534 262h2l-1 4h-3l-1 5q-2.187.079-4.375.125l-2.46.07C522 271 522 271 520 269l1.938-.875c2.214-.953 2.214-.953 3.062-3.125l1 4c2.016-.716 2.016-.716 4-2 .805-2.05.805-2.05 1-4l3 1z"/><path fill="#040303" d="M85 240h1v7H76l-1 2c-1.125-4.75-1.125-4.75 0-7a100 100 0 0 1 5 0l1 1 2 1-1 2h2z"/><path fill="#131212" d="m433 197 1 3-4 1v2l-3 1c-1.018 1.865-1.018 1.865-1.687 4.063l-.762 2.222L424 212h-2c-.325-4.66-.05-7.379 3-11 2.576-1.56 5.23-2.822 8-4"/><path fill="#5f3f2d" d="M250 69c11.811-.688 11.811-.688 15.688 1.75 2.253 2.192 3.091 3.157 3.312 6.25-1.937-.312-1.937-.312-4-1l-1-3-8-1v-2h-6z"/><path fill="#100f0f" d="M373.563 239.938 376 240v3h-3v3l3 1-1 5-5-1a758 758 0 0 1-.062-4.937l-.036-2.778c.14-3.26.382-3.268 3.66-3.347"/><path fill="#ca5138" d="M163 118c2.367 2.79 4.344 5.533 6.063 8.75 1.609 3.503 1.609 3.503 4.937 4.25l2 5c1.565 2.11 3.258 4.028 5 6-8.864-4.056-13.897-12.469-18-21z"/><path fill="#4e4235" d="M195 94h2l1 3c-1.67 2.673-3.724 4.832-6 7h8c-2 2-2 2-3.945 2.195L190 106l1-9 4-1z"/><path fill="#110f0e" d="m537 262 .813 1.875c1.143 2.425 1.143 2.425 4.187 4.125 3.053.158 3.053.158 6-1l-1 4h-12l-1-2h2z"/><path fill="#e63913" d="M294 92c1.563 1 1.563 1 3 3-.033 2.766-.506 5.26-1 8h-2v2h-2a444 444 0 0 1-.125-5.375l-.07-3.023C292 94 292 94 294 92"/><path fill="#cd3f24" d="M288 86h2c1.174 2.349 1.115 3.738 1.098 6.352l-.01 2.578-.026 2.695-.013 2.719q-.018 3.328-.049 6.656h-1v-7h-2z"/><path fill="#0e0d0d" d="M265 252h1l.148 3.465.227 4.472.094 2.288c.104 1.93.31 3.854.531 5.775l2 1-1 2-4-1q-.04-4.22-.062-8.437l-.026-2.432c-.009-2.044.036-4.088.088-6.131z"/><path fill="#0e0c0c" d="M120 198h5c1.065 3.196 1.074 5.657 1 9l-2-3h-2l1 4-4 1a585 585 0 0 1-.062-4.375l-.036-2.46C119 200 119 200 120 198"/><path fill="#0c0b0b" d="M138 197h16l-1 3h-12v2h-3z"/><path fill="#c34019" d="m160 128 1.188 1.688c1.83 2.44 1.83 2.44 4.375 4.812 2.161 2.217 3.092 3.811 4.437 6.5l3 1c1.063 1.875 1.063 1.875 2 4l2 3c-7.173-2.922-12.784-10.676-17-17z"/><path fill="#ab5339" d="M185 134c4.75 1.875 4.75 1.875 7 3v2l4 2-3 1 3 1v2c-3.997-1.37-6.958-3.043-10-6-.812-2.75-.812-2.75-1-5"/><path fill="#1d1d1c" d="M515 260h6l1 5h2l1 4h-4l-1-2-2 2h-3c1.75-3.875 1.75-3.875 4-5l-1-3z"/><path fill="#111" d="M111.563 239.938 114 240v3h-2v3l-2 1v18h-1c-.196-3.979-.38-7.958-.562-11.937l-.17-3.444-.147-3.271-.143-3.031c.031-3.29.287-3.3 3.585-3.38"/><path fill="#a35340" d="M448 106q3.5-.061 7 0c1 1 1 1 1.063 3.563L456 112c-1.812.625-1.812.625-4 1-3-2-3-2-3.687-4.625z"/><path fill="#a94b3b" d="m307.25 73.375 2.703.336L312 74v2l3 1h-17v-2c3.315-2.03 5.432-2.127 9.25-1.625"/><path fill="#af4d2b" d="m187 50 2 1-1.61 1.793c-3.568 3.992-7.11 7.97-10.39 12.207l-1-6 2 1 1-2h2l-1-4c3.75-3 3.75-3 6-3z"/><path fill="#070706" d="m337 194 3 3-2 1 2 4-10 3c1.123-4.49 1.547-4.489 5-7 1.252-2.083 1.252-2.083 2-4"/><path fill="#f4300d" d="M246 25h12v5c-1.628-.255-3.252-.53-4.875-.812l-2.742-.458C248 28 248 28 246 25"/><path fill="#121110" d="M433 215h1l1 8-3.25-.5c-3.78-.588-3.78-.588-7.75-.5l1-3 7-1z"/><path fill="#121111" d="m96.125 239.938 2.758.027L101 240c-1.75 4.875-1.75 4.875-4 6v-3h-2l-1 2-2-2-3 1v-3c2.525-1.262 4.312-1.099 7.125-1.062"/><path fill="#0b0909" d="M75 206c3 1 3 1 4.188 2.75.92 2.55.961 4.56.812 7.25l-5 1z"/><path fill="#b74e31" d="M215 32h15l-1 3q-2.375.039-4.75.063l-2.672.035c-2.36-.09-4.323-.429-6.578-1.098z"/><path fill="#1c1c1c" d="M120 202h1l1 5v-3h2l1-2 1 6-2.375.75c-3.034 1.445-3.295 2.306-4.625 5.25l-3 1 1-3h2z"/><path fill="#221c19" d="M431.563 185.938 435 186c.625 2.375.625 2.375 1 5-2 2-2 2-4.625 2.125L429 193l1-4-3-2c1-1 1-1 4.563-1.062"/><path fill="#e33d15" d="M157 111c2.346 2.133 3.863 4.025 5 7 .125 2.75.125 2.75 0 5h-2v-2h-2c-1.85-3.123-2.294-5.38-2-9z"/><path fill="#0c0c0c" d="M434.125 239.875 437 240l-1 3h-3v2l2 2-5 3c-.977-6.055-.977-6.055-1-8 2-2 2-2 5.125-2.125"/><path fill="#cc4623" d="M152 70c.345 1.33.675 2.665 1 4l.625 2.375c.44 3.085.01 5.59-.625 8.625h-2l-2 2c.779-11.522.779-11.522 3-17"/><path fill="#0d0d0d" d="M157 200h4l3 9-4 1c-1.422-3.317-2.39-6.442-3-10"/><path fill="#0e0e0e" d="m236 258 3 1c1.394.067 2.792.085 4.188.063L247 259v5h-3v-2h-7z"/><path fill="#96513b" d="M463 129c5.875.875 5.875.875 7 2 .04 1.666.043 3.334 0 5l-6-1z"/><path fill="#d44126" d="M260 29c3.107 1.468 5.905 3.2 8.75 5.125l2.422 1.633L273 37l-2 1c-2.625-.937-2.625-.937-5-2v-2l-4 3-3-3 3-3h-2z"/><path fill="#121212" d="M472 259h1q.039 2.438.063 4.875l.035 2.742C473 269 473 269 472 271l-4-1v-8l2-1 1 6z"/><path fill="#0e0e0e" d="M94 254h1v10h3l1 3-1 2h-5l1-3-2-1 1-1c.233-1.682.413-3.371.563-5.062l.253-2.786z"/><path fill="#0f0f0e" d="M121.563 239.938 124 240c-1 3-1 3-2 4-.364 1.66-.7 3.327-1 5h-2l-1 3a920 920 0 0 1-.062-5.437l-.036-3.06c.133-3.412.24-3.482 3.66-3.565"/><path fill="#0f0f0f" d="M573 199c2.154 3.23 2.296 4.311 2.313 8.063l.05 2.66L575 212l-3 2q-.04-3.187-.062-6.375l-.036-3.586C572 201 572 201 573 199"/><path fill="#cc5940" d="M169 42c0 4.034-1.596 5.494-4 8.688l-2.25 3.011L161 56l-1-2c2.131-5.684 4.187-8.47 9-12"/><path fill="#010101" d="M430 263h1v5l13 1-1 2q-2.97.039-5.937.063l-3.34.035C431 271 431 271 430 270q-.062-3.5 0-7"/><path fill="#201f1f" d="M530 257h2c-.114 1.626-.242 3.25-.375 4.875-.07.905-.14 1.81-.21 2.742C531 267 531 267 529 269h-3q.713-2.72 1.438-5.437l.808-3.06C529 258 529 258 530 257"/><path fill="#100c09" d="M298 186q3.51.43 7 1l-2 5-1-2-6 1c.875-3.875.875-3.875 2-5"/><path fill="#ad442a" d="M292 62h4v2h23v1l-25 1v-2h-2z"/><path fill="#ba4a36" d="M500 18v7l-4-1v-4l-4-1v-1c3.287-.8 4.71-1.097 8 0"/><path fill="#0f0e0e" d="M516.125 252.875 519 253l-1 3-3 1-.5 2-.5 2-3 1c-.125-3.375-.125-3.375 0-7 2-2 2-2 5.125-2.125"/><path fill="#111" d="M454 246h1v5l8 1v3c-6.75.125-6.75.125-9-1z"/><path fill="#161616" d="M532 217c0 3 0 3-2 6-3.125.188-3.125.188-6 0v-4l3.438-.437c3.37-.175 3.37-.175 4.562-1.563"/><path fill="#0b0a0a" d="M463 211h2v3l3 1c-1 1-1 1-3.285 1.098l-2.777-.036-2.786-.027L457 216l-1-3 7-1z"/><path fill="#100d0d" d="m483 186 5 1 1 4-3 2-1-3-2-1-1 4-2-2z"/><path fill="#d5543a" d="M260 155h2v2h18v1q-3.562.293-7.125.563l-2.016.17c-4.132.303-7.806.12-11.859-.733z"/><path fill="#655240" d="M207 123h6v4h-2v5l2 1h-3c-2.034-3.73-3-5.67-3-10"/><path fill="#be5542" d="M175 116c2.799 2.528 4.458 4.204 5 8l-5 1c-1.125-1.687-1.125-1.687-2-4 .875-2.75.875-2.75 2-5"/><path fill="#111" d="m218 246 3 1v10l-3 1z"/><path fill="#181717" d="M129 245h1c.197 3.27.38 6.541.563 9.813l.17 2.814.146 2.705.143 2.491C131 265 131 265 130 268l2 1-4-1z"/><path fill="#c54531" d="M185 153q2.188.716 4.375 1.438l2.46.808C194 156 194 156 196 157v2l4 1c-2.687.75-2.687.75-6 1-2.625-1.687-2.625-1.687-5-4l-2.312-2.25z"/><path fill="#57402c" d="M240 105h2c1.125 5.75 1.125 5.75 0 8h2v3h-3c-1.63-4.122-2.263-6.707-1-11"/><path fill="#1b1919" d="M556 265c3 1 3 1 4 2l2-2c2.625.375 2.625.375 5 1v2l-3 1v-2h-2l-1 3c-2.062.688-2.062.688-4 1l-2-5z"/><path fill="#070303" d="M448 187h2l2 7c-3 1-3 1-5.187.063L445 193c.573-2.867.861-3.861 3-6"/><path fill="#4a3d2d" d="M219 136c1.791-.054 3.583-.093 5.375-.125l3.023-.07C230 136 230 136 232 138c-2.882.96-4.699 1.106-7.687 1.063l-2.45-.028L220 139z"/><path fill="#bd583a" d="M273 117c0 3.693-.882 5.005-3 8-2.687 2.313-2.687 2.313-5 4l-2-1a799 799 0 0 1 3.313-4.375l1.863-2.46C270 119 270 119 273 117"/><path fill="#d5482f" d="M288 77h2c1.203 2.405 1.1 3.95 1.063 6.625l-.028 2.477L291 88l-1-2h-2c-1.125-6.75-1.125-6.75 0-9"/><path fill="#ab5847" d="M476 36h11l-4 1-1 3-10-1 4-1z"/><path fill="#1a110f" d="M364 185c3.688.498 5.605 1.1 8 4l-1 2-2.375-.562c-2.596-.698-2.596-.698-4.625.562z"/><path fill="#14100e" d="m251 185 3 1c-.375 2.438-.375 2.438-1 5l-2 1v-2h-5z"/><path fill="#974936" d="M481 141c2.938 1.313 2.938 1.313 6 3l1 3c-2.312.688-2.312.688-5 1-1.812-1.437-1.812-1.437-3-3l2-1z"/><path fill="#0c0a0a" d="M242 268c-1.187 1.563-1.187 1.563-3 3-2.687-.312-2.687-.312-5-1l-1-3c3.2-1.6 5.723-.032 9 1"/><path fill="#10100f" d="M492 254c1.938.375 1.938.375 4 1l1 2h-2v3l2 1c-1 1-1 1-3.562 1.063L491 262l-1-3h4l-2-2z"/><path fill="#0f0f0f" d="M216 213h14c-4 3-4 3-6.07 3.145-5.708-.923-5.708-.923-7.93-3.145"/><path fill="#100d0c" d="M86 211h4c1 3 1 3 0 6l-5-1z"/><path fill="#211c1c" d="m435 193 1 3h2l-1 3-3 1v-3h-4v-3z"/><path fill="#c54a27" d="M240 157v1l-12 1-1-3c4.944-1.206 8.209-.63 13 1"/><path fill="#a24f30" d="m215.5 148.688 2.344-.051C220 149 220 149 223 152l-15-1c3.098-2.065 3.954-2.295 7.5-2.312"/><path fill="#bd492b" d="M296 130a56.5 56.5 0 0 1-7 4l1 2h-5v-4c3.634-2.326 6.77-2.163 11-2"/><path fill="#b95140" d="M303.188 70.938 307 71c-7.5 5-7.5 5-11 5v-4c2.75-.917 4.36-1.109 7.188-1.062"/><path fill="#0d0d0d" d="m223 217-1 3c-2.944 1.178-3.9 1.033-7 0v-3c2.862-1.43 4.934-.6 8 0"/><path fill="#de5b41" d="M259 26h5v3c1.764 1.688 1.764 1.688 4 3.188l2.25 1.605L272 35l-2 1a872 872 0 0 1-5.5-3.875c-1.02-.72-2.042-1.439-3.094-2.18L259 28z"/><path fill="#131212" d="M534.063 253.625C536 255 536 255 536.75 257.625L537 260h-2v-2l-3 1v-2h-2v-3c2-1 2-1 4.063-.375"/><path fill="#020202" d="m354 219 6 1c-.875 3.875-.875 3.875-2 5-1.666.04-3.334.043-5 0l-1-2 3-1 1-2z"/><path fill="#130c0b" d="m69 211 5 1-1 5-4-1z"/><path fill="#181211" d="m185 185 3 1v3l-7 2v-3c1.813-1.75 1.813-1.75 4-3"/><path fill="#5d4a3c" d="M195 94v2l-4 1v8l-2-1c-.293-6.055-.293-6.055 0-8 3-2 3-2 6-2"/><path fill="#b05a41" d="M169 70c2.786 4.18 1.796 6.147 1 11-1.5-1.125-1.5-1.125-3-3-.187-3.187-.187-3.187 0-6h2z"/><path fill="#553d30" d="M218 62a351 351 0 0 1 4.813-.125l2.707-.07C228 62 228 62 231 64c-4.97.913-9.03.913-14 0z"/><path fill="#c4331d" d="m498 24 2 2c-1 1-1 1-3.225 1.114l-2.904-.016-3.135-.01-3.298-.026-3.311-.013Q480.063 27.03 476 27v-1l1.912-.076q4.263-.175 8.526-.361l3.01-.12 2.86-.127 2.65-.11c2.035.012 2.035.012 3.042-1.206"/><path fill="#111010" d="M285 258h1l1 8c-2.709 1.354-5.01 1.065-8 1 2-2 2-2 4-3a101 101 0 0 0 2-6"/><path fill="#1a1919" d="M73 262h3v8l-5-1 2-1z"/><path fill="#191919" d="M168 216h9v3l-7 2z"/><path fill="#0b0605" d="m105 211 5 1v4c-1.937.563-1.937.563-4 1-1-1-1-1-1.062-3.562z"/><path fill="#040404" d="m103 200 3 1c.125 3.375.125 3.375 0 7l-2 2c-1.062-1.875-1.062-1.875-2-4l1-2z"/><path fill="#100f0f" d="m356 194 2 1c-.687 2.375-.687 2.375-2 5-2.625 1.313-2.625 1.313-5 2-.312-2.312-.312-2.312 0-5 2.375-1.875 2.375-1.875 5-3"/><path fill="#140c0a" d="M381 185c-.25 1.875-.25 1.875-1 4-2.582 1.721-3.85 2-7 2 1.435-4.304 3.42-6 8-6"/><path fill="#4f3526" d="m214 58 .5 1.875c2.402 3.403 5.502 3.351 9.5 4.125v1h-11l-1-3 2-1z"/><path fill="#b45236" d="M204 37v3h-8l1-3c3.133-1.044 3.99-.934 7 0"/><path fill="#e33a1e" d="M264 34h2v2l5 1-3 1 1 3c-2.437-.75-2.437-.75-5-2-.875-2.062-.875-2.062-1-4z"/><path fill="#0e0e0d" d="M550 267h6v2l2 1c-3.29 1.097-4.713.8-8 0z"/><path fill="#0d0d0d" d="M285 197h2c.688 1.75.688 1.75 1 4-1.437 2.25-1.437 2.25-3 4l-4-1 1.438-1.25c1.725-1.932 2.128-3.232 2.562-5.75"/><path fill="#bd4229" d="m297.25 122.375 2.703.336L302 123v1l-2.152.148-2.786.227c-.916.07-1.833.14-2.777.21-.754.138-1.508.274-2.285.415l-1 2h-3v-3c3.315-2.03 5.432-2.127 9.25-1.625"/><path fill="#d44b38" d="m293 113 5 5c-4.875 4-4.875 4-6 4-.098-6.152-.098-6.152 0-8z"/><path fill="#d4402a" d="m188 28 3 1-3 1v3l-8 2c2.578-2.648 4.916-4.944 8-7"/><path fill="#111010" d="M373 259v9h-3v-8c2-1 2-1 3-1"/><path fill="#111" d="M219 240h8l-2 4v-2l-7 1zm4 4 2 1Z"/><path fill="#080808" d="m198 200 3 1c-.625 1.938-.625 1.938-2 4-3.125.75-3.125.75-6 1l-1-4 2 1 3-1z"/><path fill="#242423" d="M84 202h4v5h-6l-1-2h3z"/><path fill="#201f1f" d="M575 195v7l-3-1-1-2-2 1c.375-1.937.375-1.937 1-4 2-1 2-1 5-1"/><path fill="#100e0e" d="M503.313 189.25 505 190l-2 2h-3l-1 4-3-3c4.43-4.062 4.43-4.062 7.313-3.75"/><path fill="#aa3e2a" d="m496 156 4 1v8l-4 1v-2h2v-7z"/><path fill="#49301f" d="M243 104c2.686 2.686 3.06 5.376 4 9h-5c-.098-6.152-.098-6.152 0-8z"/><path fill="#0e0e0e" d="m184 257 3 1c.125 6.75.125 6.75-1 9l-2-1z"/><path fill="#0c0a0a" d="m481 240 4 2v8l-4-3 2-5h-2z"/><path fill="#0f0e0d" d="M403.563 239.938 406 240l-1 4v-2h-2l-2 5h-1c-.043-2-.04-4 0-6 1-1 1-1 3.563-1.062"/><path fill="#1b1b1b" d="m313 216 7 1-2 5c-3.875-2.625-3.875-2.625-5-6"/><path fill="#0e0e0e" d="M493 196c1.43 2.354 2.087 3.48 1.625 6.25L494 204h-3c-.125-2.875-.125-2.875 0-6z"/><path fill="#100f0e" d="M386 197h2l1 9-3-1z"/><path fill="#181616" d="m335 194 2 1c-2.101 3.982-4.37 6.35-8 9 .505-4.379 3.178-6.817 6-10"/><path fill="#a14536" d="M465 48h5l-1 5-4 1-1-2h3v-2h-2z"/><path fill="#090807" d="M463 265h2v5c-3 1-3 1-5.187.063L458 269l1-2h3z"/><path fill="#181817" d="M109 240h5v3h-2l-1 2h-3z"/><path fill="#131111" d="m351 240 5 1 1 4h-5z"/><path fill="#121212" d="M302 240h10v2l-10 1z"/><path fill="#131312" d="m569 190 1 4h-4l-1-2-3 1v-3c3.133-1.044 3.99-.934 7 0"/><path fill="#0c0807" d="m480 187-5 5-2-1c.375-1.937.375-1.937 1-4 2.49-1.245 3.41-.777 6 0"/><path fill="#b64324" d="m277 144 12 2v1h-13z"/><path fill="#95513b" d="m456 117 5 2v5h-3z"/><path fill="#4c351b" d="M256 111c.563 1.938.563 1.938 1 4-1 1-1 1-4.062 1.063L250 116l1-4z"/><path fill="#533928" d="m215 73 3 1-2 1v15h-1q-.29-3.968-.562-7.937l-.17-2.288c-.13-1.922-.203-3.849-.268-5.775z"/><path fill="#e14f30" d="M260 25h12v1l-2.375.438c-2.59.44-2.59.44-4.625 1.562l-1 2z"/><path fill="#0d0c0c" d="m562 267 6 1v2c-2.957 1.478-5.742 1.06-9 1z"/><path fill="#0b0b0b" d="M72 256h3l1 6h-3l-1 2z"/><path fill="#151414" d="m282 216 1 4c-5.75 2-5.75 2-8 2v-3l2.938-.375L281 218z"/><path fill="#0a0a0a" d="M419 204h1v9l-2 1c-1.25-6.625-1.25-6.625 1-10"/><path fill="#944c3e" d="m451 71 5 1-1 5-4-1h2z"/><path fill="#ab513a" d="M246 40c3.719.507 6.735 1.116 10 3v2c-3.949-.564-6.709-1.743-10-4z"/><path fill="#0d0c0c" d="M89 261h1l1 9-3-1q-.061-3.5 0-7z"/><path fill="#101010" d="M304 257c1.5 1.188 1.5 1.188 3 3 .188 2.688.188 2.688 0 5h-3z"/><path fill="#0d0c0c" d="M380 258h2l1 9h-3z"/><path fill="#0f0f0f" d="M186 246h1v7l-3 1-1-2c1.556-4.556 1.556-4.556 3-6"/><path fill="#100d0d" d="m427 190 2 1-1 3h-3l-1 3h-2v-5l5 1z"/><path fill="#171413" d="m464 189 4 1-1 5-1-2-3-1z"/><path fill="#cd5133" d="m281 124 1 3c-3.213 5.738-3.213 5.738-7 7 1.37-3.995 3.257-6.8 6-10"/><path fill="#eb3613" d="m285 59 5 2-1 4h-3z"/><path fill="#c24725" d="M277 51c3 2 3 2 3.688 4.125L281 57l-3 1-3-5z"/><path fill="#9a4d3e" d="M483 37h5v2c-4.385 3-4.385 3-7 3z"/><path fill="#0d0d0d" d="M286 215h1c.625 2.813.625 2.813 1 6l-2 3-3-1z"/><path fill="#111" d="m523 202 5 1 1 5h-3l-.375-2.437L525 203z"/><path fill="#a75842" d="m189 136 3 1v2l4 2c-3.204 0-5.094-.743-8-2z"/><path fill="#db462a" d="m287 124 1 3h2c-.312 1.938-.312 1.938-1 4l-3 1c-.93-2.606-1.15-3.642-.062-6.25z"/><path fill="#c84319" d="m297 96 2 1-1 2 3 1-2 2c-.643 2.069-.643 2.069-1 4h-2z"/><path fill="#a75535" d="m279 81 2 1c.407 2.322.744 4.657 1 7l-3 1z"/><path d="M209 267h2l-1 4h-5l-1-3 5 1z"/><path fill="#0f0f0f" d="m160 265-1 2h-6l-1-2c2.862-1.43 4.934-.6 8 0"/><path fill="#0c0c0c" d="M176 245h3c1.097 3.29.8 4.713 0 8l-3-1 1-3c-.39-2.143-.39-2.143-1-4"/><path fill="#111" d="M283.563 239.938 287 240v2c-2.875.625-2.875.625-6 1l-2-2c1-1 1-1 4.563-1.062"/><path fill="#131313" d="M134.848 239.902 141 240l-1 2c-2.937.75-2.937.75-6 1l-2-2c1-1 1-1 2.848-1.098"/><path fill="#141414" d="m357 216 3 2-1 3-6-1 1-3z"/><path fill="#171413" d="m460 191 2 1-1 3-6 1c1-3 1-3 2.938-4.25z"/><path fill="#040202" d="m235 192 1 3h-6l-1-3c3.75-1.125 3.75-1.125 6 0"/><path fill="#1e1714" d="m417 185 2 1c-.75 1.938-.75 1.938-2 4-2.125.75-2.125.75-4 1 .313-1.875.313-1.875 1-4z"/><path fill="#ec3314" d="M273 138h3l-1 5h-3z"/><path fill="#d54522" d="m295 108 1 3 2 1-4 4c-.625-2.312-.625-2.312-1-5z"/><path fill="#d45d3b" d="M290 59h8v2l-7 1z"/><path fill="#100e0e" d="M500 240h4l-1 3h-2v2h-2z"/><path fill="#050505" d="m319 219 7 1v2h-6z"/><path fill="#b15f47" d="m169 105 1 2 3 1-1 3-3-1z"/><path fill="#b25b41" d="m174 60 1 2c-.777 1.727-.777 1.727-1.937 3.625L171 69l-2-4 1.938-.812C173.33 63.113 173.33 63.113 174 60"/><path fill="#d1482e" d="m163 64 1 2a101 101 0 0 1-3 6h-1c-.187-2.875-.187-2.875 0-6z"/><path fill="#e23a14" d="M170 45h1v5l-4 1c.573-2.867.861-3.861 3-6"/><path fill="#f3331b" d="M256.25 26.313 258 27v3l-8-1c3.446-3.077 3.446-3.077 6.25-2.687"/></svg>